<svg xmlns="http://www.w3.org/2000/svg" xmlns:xlink="http://www.w3.org/1999/xlink" width="1226.047" height="838.064" viewBox="0 0 1226.047 838.064"><defs><style>.a,.b,.e,.g,.h,.i,.j{fill:none;}.b,.d,.e{stroke:#194d99;}.b,.d,.g,.h,.i,.j{stroke-width:4px;}.c{clip-path:url(#a);}.d{fill:rgba(0,0,0,0);}.e{stroke-linecap:round;stroke-linejoin:round;stroke-width:2px;}.f{opacity:0.25;}.g,.h,.i,.j{stroke:#6dcdf7;stroke-miterlimit:10;}.g{stroke-dasharray:20;}.h{stroke-dasharray:18.45 18.45;}.i{stroke-dasharray:18.44 18.44;}.j{stroke-dasharray:18.79 18.79;}.k{fill:#d8d8d8;}</style><clipPath id="a"><rect class="a" width="185.771" height="141.093"/></clipPath></defs><g transform="translate(-278.3 -24.1)"><g transform="translate(280.3 26.1)"><g transform="translate(0 0)"><g transform="translate(285.391 53.316)"><path class="b" d="M1008.631,140.9h3.065a77.92,77.92,0,0,1,77.931,77.945V221.9a77.92,77.92,0,0,1-77.945,77.931h-3.051A77.92,77.92,0,0,1,930.7,221.882v-3.051a77.92,77.92,0,0,1,77.945-77.931Z" transform="translate(-914.027 -140.9)"/></g><g transform="translate(853.524 228.963)"><path class="b" d="M2197.8,519.1h3.112a79.681,79.681,0,0,1,79.7,79.714v3.093a79.681,79.681,0,0,1-79.714,79.7H2197.8a79.62,79.62,0,0,1-79.7-79.7V598.8a79.681,79.681,0,0,1,79.714-79.7Z" transform="translate(-2118.1 -519.1)"/></g><g transform="translate(326.307 541.661)"><path class="b" d="M1074.021,1192.4h3.576a91.1,91.1,0,0,1,91.121,91.121v3.576a91.1,91.1,0,0,1-91.121,91.121h-3.576A91.1,91.1,0,0,1,982.9,1287.1v-3.576A91.126,91.126,0,0,1,1074.021,1192.4Z" transform="translate(-982.9 -1192.4)"/></g><g transform="translate(124.792 462.012)"><path class="b" d="M643.743,1020.9h3.715a94.723,94.723,0,0,1,94.743,94.743v3.715a94.723,94.723,0,0,1-94.743,94.743h-3.715A94.723,94.723,0,0,1,549,1119.359v-3.715a94.692,94.692,0,0,1,94.743-94.743Z" transform="translate(-549 -1020.9)"/></g><g transform="translate(510.73 657.629)"><path class="b" d="M1466.523,1442.1h3.39a86.527,86.527,0,0,1,86.569,86.523v3.39a86.519,86.519,0,0,1-86.527,86.523h-3.386A86.468,86.468,0,0,1,1380,1532.013v-3.39a86.519,86.519,0,0,1,86.528-86.523Z" transform="translate(-1380 -1442.1)"/><path class="a" d="M1409.5,1578.7h146.945v50.483H1409.5Z" transform="translate(-1395.799 -1515.259)"/></g><g transform="translate(467.074 260.962)"><ellipse class="d" cx="132.826" cy="133.523" rx="132.826" ry="133.523"/></g><g transform="translate(508.176)"><path class="b" d="M1469.243,26.1h3.715a94.723,94.723,0,0,1,94.743,94.743v3.715a94.723,94.723,0,0,1-94.743,94.743h-3.715a94.723,94.723,0,0,1-94.743-94.743v-3.715A94.723,94.723,0,0,1,1469.243,26.1Z" transform="translate(-1374.5 -26.1)"/></g><g transform="translate(727.246 599.715)"><path class="b" d="M1931.562,1317.4H1935a85.339,85.339,0,0,1,85.362,85.362v3.437A85.338,85.338,0,0,1,1935,1491.56h-3.437A85.338,85.338,0,0,1,1846.2,1406.2v-3.437a85.306,85.306,0,0,1,85.362-85.362Z" transform="translate(-1846.2 -1317.4)"/></g><g transform="translate(723.717 76.584)"><path class="b" d="M1922.847,191h3.3a84.24,84.24,0,0,1,84.247,84.256v3.288a84.24,84.24,0,0,1-84.256,84.247h-3.288a84.169,84.169,0,0,1-84.247-84.2v-3.3A84.248,84.248,0,0,1,1922.847,191Z" transform="translate(-1838.6 -191)"/></g><g transform="translate(1023.69 314.139)"><path class="b" d="M2590.626,702.5h15.28c48.115,0,87.126,41.566,87.126,92.793v3.9c0,51.273-39.011,92.793-87.126,92.793h-15.28c-48.115,0-87.126-41.566-87.126-92.793v-3.9C2503.5,744.02,2542.512,702.5,2590.626,702.5Z" transform="translate(-2494.676 -702.5)"/></g><g transform="translate(226.966 226.13)"><path class="b" d="M830.908,513h10.868c34.182,0,61.908,29.491,61.908,65.949v2.786c0,36.458-27.726,65.949-61.908,65.949H830.908c-34.182,0-61.908-29.491-61.908-65.949v-2.786C769,542.538,796.726,513,830.908,513Z" transform="translate(-769 -513)"/></g><g transform="translate(0 302.667)"><path class="b" d="M364.547,677.8h3.3a84.24,84.24,0,0,1,84.247,84.256v3.288a84.24,84.24,0,0,1-84.256,84.247h-3.288A84.24,84.24,0,0,1,280.3,765.335v-3.288A84.178,84.178,0,0,1,364.547,677.8Z" transform="translate(-280.3 -677.8)"/></g><g transform="translate(849.855 448.683)"><path class="b" d="M2185.344,992.2h2.926a75.121,75.121,0,0,1,75.144,75.144v2.926a75.121,75.121,0,0,1-75.144,75.144h-2.926a75.052,75.052,0,0,1-75.144-75.1v-2.926A75.13,75.13,0,0,1,2185.344,992.2Z" transform="translate(-2110.2 -992.2)"/></g></g><g transform="translate(171.792 112.531)"><path class="e" d="M1759,1095.6l84.8,113.506" transform="translate(-1244.043 -711.426)"/><path class="e" d="M1290.738,548.841,1214.2,449.5" transform="translate(-952.263 -365.392)"/><path class="e" d="M1779.2,597.913l65.252-66.413" transform="translate(-1254.862 -409.309)"/><path class="e" d="M1582.8,510.145l1.347-66.645" transform="translate(-1149.675 -362.179)"/><path class="e" d="M1854,768.243,1977.259,731.6" transform="translate(-1294.923 -516.477)"/><path class="e" d="M1857.2,906.7l301.645,1.626" transform="translate(-1296.636 -610.256)"/><path class="e" d="M1833.5,996.3l131.944,47.232" transform="translate(-1283.943 -658.244)"/><path class="e" d="M1563.4,1162.5l.093,130.411" transform="translate(-1139.285 -747.256)"/><path class="e" d="M1291.2,1154.839l46.675-58.239" transform="translate(-993.502 -711.961)"/><path class="e" d="M919.7,1031.207,1096.415,974.5" transform="translate(-794.537 -646.568)"/><path class="e" d="M650.2,875.7l295.1,7.867" transform="translate(-650.2 -593.653)"/><path class="e" d="M1055.4,694l115.457,34.646" transform="translate(-867.214 -496.34)"/><path class="e" d="M1789.1,268.4l31.86,9.242" transform="translate(-1260.164 -268.4)"/></g></g><g transform="translate(318.151 49.693)"><g class="f" transform="translate(6.038 7.059)"><path class="g" d="M1677.8,562.08c3.623-12.447,10.031-27.633,13.7-40.08" transform="translate(-1072.651 -322.343)"/><line class="g" y1="29.77" x2="76.073" transform="translate(672.072 269.089)"/><line class="g" y1="48.997" x2="9.335" transform="translate(754.74 217.723)"/><line class="g" y1="5.527" x2="55.499" transform="translate(754.74 261.194)"/><line class="g" x1="7.431" y1="41.798" transform="translate(612.208 146.713)"/><line class="h" y1="73.287" x2="64.695" transform="translate(940.79 141.372)"/><line class="i" x1="2.136" y1="91.724" transform="translate(907.769 107.933)"/><line class="j" x1="1.44" y1="63.394" transform="translate(1081.976 217.723)"/><line class="g" x1="82.111" y1="38.594" transform="translate(825.659 69.339)"/><line class="g" x2="45.607" y2="21.41" transform="translate(708.716 24.522)"/><line class="g" x1="51.226" y2="17.184" transform="translate(657.489 24.522)"/><line class="g" x2="28.841" y2="58.657" transform="translate(470.279 181.08)"/><path class="g" d="M1335.949,366.079l-18.484,46.628L1270,363.2" transform="translate(-854.245 -237.294)"/><line class="g" x2="48.765" y2="13.19" transform="translate(424.208 2.043)"/><line class="g" x1="42.263" y2="34.739" transform="translate(380.877)"/><path class="g" d="M861.777,254.1,797.5,293.065l30.42,84.2" transform="translate(-601.187 -178.863)"/><path class="g" d="M575.074,562.08,483.581,522,403.7,598.723" transform="translate(-390.278 -322.343)"/><path class="g" d="M1131.836,846.378l-85.362,13L1001.1,778.2" transform="translate(-710.229 -459.557)"/><line class="g" y1="59.493" x2="91.771" transform="translate(246.146 399.361)"/><path class="g" d="M374.8,1025.5v58.843l79.092,27.448" transform="translate(-374.8 -592.004)"/><line class="g" y1="45.235" x2="77.002" transform="translate(21.271 584.482)"/><path class="g" d="M1304.991,1646.327l-61.072-4.737L1229.8,1592.5" transform="translate(-832.715 -895.674)"/><path class="g" d="M1855.837,1682.3l-46.025,35.807-52.713-31.116" transform="translate(-1115.122 -943.768)"/><path class="g" d="M1672.768,1132.9l23.221,62.465-36.69,90.8" transform="translate(-1062.743 -649.524)"/><path class="g" d="M1392.461,1135.4l-4.319,49.879L1343,1199.119" transform="translate(-893.342 -650.863)"/><line class="g" x1="20.528" y1="98.551" transform="translate(494.801 534.416)"/><path class="g" d="M2548.852,1110.5l-33.207,66.274-90.145-11.889" transform="translate(-1473.099 -637.527)"/><path class="g" d="M2208.5,1413.461l94.279-52.48-7.431-88.38" transform="translate(-1356.88 -724.344)"/><path class="g" d="M753,1436.8l17.6,47.232,102.545-15.6" transform="translate(-577.354 -812.285)"/><path class="g" d="M1186.183,651.662,1118.842,612l-66.042.093" transform="translate(-737.918 -370.544)"/><line class="g" x2="24.29" y2="61.815" transform="translate(356.634 179.64)"/><path class="g" d="M2009.611,844.7l-72.543,60.283-93.768-3.669" transform="translate(-1161.289 -495.172)"/><path class="g" d="M1809.6,1035.6l87.962,57.5,17.463,72.172" transform="translate(-1143.24 -597.413)"/><line class="g" x1="51.366" y2="1.44" transform="translate(754.601 493.222)"/><line class="g" x2="54.524" y2="25.915" transform="translate(775.779 409.81)"/><line class="g" x1="25.683" y1="32.696" transform="translate(267.928 2.043)"/><line class="g" y1="24.522" x2="115.131" transform="translate(966.844 217.723)"/><line class="g" x1="55.592" y1="62.558" transform="translate(637.984 548.256)"/></g><g transform="translate(0 0)"><circle class="k" cx="7.431" cy="7.431" r="7.431" transform="translate(1004.091 141)"/><circle class="k" cx="7.431" cy="7.431" r="7.431" transform="translate(906.376 107.561)"/><circle class="k" cx="7.431" cy="7.431" r="7.431" transform="translate(1082.022 217.352)"/><circle class="k" cx="7.431" cy="7.431" r="7.431" transform="translate(751.629 267.789)"/><circle class="k" cx="7.431" cy="7.431" r="7.431" transform="translate(618.245 195.57)"/><circle class="k" cx="7.431" cy="7.431" r="7.431" transform="translate(704.304 22.293)"/><circle class="k" cx="7.431" cy="7.431" r="7.431" transform="translate(421.793)"/><circle class="k" cx="7.431" cy="7.431" r="7.431" transform="translate(0 491.968)"/><circle class="k" cx="7.431" cy="7.431" r="7.431" transform="translate(188.511 671.747)"/><circle class="k" cx="7.431" cy="7.431" r="7.431" transform="translate(15.744 631.574)"/><circle class="k" cx="7.431" cy="7.431" r="7.431" transform="translate(410.228 742.851)"/><circle class="k" cx="7.431" cy="7.431" r="7.431" transform="translate(334.155 398.06)"/><circle class="k" cx="7.431" cy="7.431" r="7.431" transform="translate(494.94 532.512)"/><circle class="k" cx="7.431" cy="7.431" r="7.431" transform="translate(692.182 772.296)"/><circle class="k" cx="7.431" cy="7.431" r="7.431" transform="translate(632.178 545.284)"/><circle class="k" cx="7.431" cy="7.431" r="7.431" transform="translate(944.505 636.265)"/><circle class="k" cx="7.431" cy="7.431" r="7.431" transform="translate(754.787 495.312)"/><circle class="k" cx="7.431" cy="7.431" r="7.431" transform="translate(774.386 409.439)"/><circle class="k" cx="7.431" cy="7.431" r="7.431" transform="translate(1041.153 538.875)"/><circle class="k" cx="7.431" cy="7.431" r="7.431" transform="translate(195.942 112.345)"/><circle class="k" cx="7.431" cy="7.431" r="7.431" transform="translate(461.733 173.278)"/><circle class="k" cx="7.431" cy="7.431" r="7.431" transform="translate(91.91 199.286)"/><circle class="k" cx="7.431" cy="7.431" r="7.431" transform="translate(379.53 241.084)"/><circle class="k" cx="7.431" cy="7.431" r="7.431" transform="translate(266.535 1.672)"/></g></g></g></svg>