<svg xmlns="http://www.w3.org/2000/svg" width="557" height="497.064" viewBox="0 0 557 497.064">
  <g id="Group_589" data-name="Group 589" transform="translate(-812 -236.351)">
    <g id="Group_225" data-name="Group 225" transform="translate(812 236.35)">
      <g id="Group_182" data-name="Group 182" transform="translate(396.765 129.58)">
        <g id="Group_2" data-name="Group 2" transform="translate(0 0)">
          <g id="Group_1" data-name="Group 1">
            <path id="Path_1" data-name="Path 1" d="M517.936,33.664l-.007.022h0l-.111.17Z" transform="translate(-517.818 -33.664)" fill="#6dcdf7"/>
          </g>
        </g>
      </g>
      <g id="Group_183" data-name="Group 183" transform="translate(371.23 206.276)">
        <g id="Group_5" data-name="Group 5">
          <g id="Group_4" data-name="Group 4">
            <path id="Path_2" data-name="Path 2" d="M514.355,44.065" transform="translate(-514.355 -44.065)" fill="#6dcdf7"/>
          </g>
        </g>
      </g>
      <g id="Group_184" data-name="Group 184" transform="translate(88.552)">
        <g id="Group_8" data-name="Group 8">
          <g id="Group_7" data-name="Group 7">
            <path id="Path_3" data-name="Path 3" d="M855.908,126.2c-.022,1.32.007,2.655-.052,3.982l-.244,3.945-.125,1.969-.066.988-.118.973-.464,3.893c-.288,2.544-.767,5.3-1.3,7.971a108,108,0,0,1-11.275,30.343,114.753,114.753,0,0,1-19.091,25.565,120.746,120.746,0,0,1-25.122,19.46,109.068,109.068,0,0,1-14.394,7.013,111.534,111.534,0,0,1-15.345,4.889A103.871,103.871,0,0,1,752.5,239.74l-.17.015h-.052a16.383,16.383,0,0,1-2.942-32.629,76.9,76.9,0,0,0,10.943-2.057A84.3,84.3,0,0,0,798.8,182.039c10.537-10.987,18.235-24.658,21.1-39.015.347-1.8.664-3.532.87-5.53l.369-2.891.089-.723.044-.73.1-1.438.2-2.876c.059-.959.022-1.91.045-2.854,0-.959.029-1.91.022-2.854l-.155-2.832a83.588,83.588,0,0,0-1.4-11.083c-.185-.907-.428-1.792-.634-2.691-.229-.885-.383-1.807-.686-2.669-.56-1.748-1.017-3.532-1.726-5.221-4.992-13.76-14.7-25.668-27.106-34.51A89.3,89.3,0,0,0,769.56,53.417c-1.792-.73-3.65-1.261-5.479-1.888l-2.794-.782c-.472-.118-.929-.265-1.4-.383l-1.408-.317a80.967,80.967,0,0,0-11.348-1.888l-2.839-.251-2.831-.111c-.9-.059-2-.022-3.023-.029-1.04.007-2.08-.015-3.1.007-4.114.111-8.17.339-12.123.8A102.791,102.791,0,0,0,711.69,50.6a75.771,75.771,0,0,0-10.773,3.539,69.391,69.391,0,0,0-10.095,5.169c-1.63,1.025-3.252,2.072-4.844,3.237-.811.553-1.578,1.15-2.338,1.74s-1.541,1.165-2.293,1.807-1.519,1.231-2.256,1.91l-2.22,2c-1.445,1.4-2.92,2.765-4.314,4.269-1.43,1.445-2.787,2.994-4.159,4.528-.686.774-1.335,1.585-2.006,2.382s-1.342,1.585-1.984,2.419a192.631,192.631,0,0,0-14.364,21.03c-4.38,7.433-8.347,15.139-12.056,23.147-1.939,4.225-4.041,8.605-6.282,12.86-2.241,4.277-4.646,8.473-7.167,12.58s-5.191,8.111-7.971,12.027c-.671.944-1.445,2.035-2.212,3.045S612.8,170.3,612,171.281c-1.593,1.954-3.252,3.856-4.955,5.7a98.39,98.39,0,0,1-23.8,19.061,76.456,76.456,0,0,1-7.064,3.466,73.88,73.88,0,0,1-7.507,2.721,61.042,61.042,0,0,1-15.927,2.529,65.779,65.779,0,0,1-15.7-1.541,79.443,79.443,0,0,1-14.645-4.7,82.254,82.254,0,0,1-25.174-16.894,71.4,71.4,0,0,1-16.694-25.462,70.571,70.571,0,0,1-3.783-14.836,74.312,74.312,0,0,1-.575-15.2,72.035,72.035,0,0,1,8.266-29.119,74.915,74.915,0,0,1,19.2-23.309c1-.767,1.991-1.571,3.023-2.315,1.047-.715,2.057-1.475,3.134-2.153a73.967,73.967,0,0,1,6.6-3.8c1.136-.56,2.264-1.158,3.444-1.644,1.157-.524,2.323-1.04,3.525-1.482l1.8-.671,1.822-.59c.6-.192,1.209-.4,1.821-.583l1.858-.5A67.361,67.361,0,0,1,545.9,57.8a74.678,74.678,0,0,1,15.065,1.143,61.473,61.473,0,0,1,14.733,4.638,49.039,49.039,0,0,1,12.964,8.878A45.48,45.48,0,0,1,597.867,85a48.593,48.593,0,0,1,3.008,7.433,1.364,1.364,0,0,1-.059.981l-4.174,9.107a1.36,1.36,0,0,1-2.485-.037c-1.069-2.537-2.359-5.5-2.927-6.651a48.646,48.646,0,0,0-3.038-5.28,43.7,43.7,0,0,0-3.657-4.675,35.439,35.439,0,0,0-4.269-3.952A37.545,37.545,0,0,0,570.2,76.232a47.952,47.952,0,0,0-11.518-2.824c-2-.229-4.019-.406-6.062-.457s-4.114-.022-6.142.088a56.578,56.578,0,0,0-11.754,2.006l-1.445.4c-.479.147-.951.317-1.423.472l-1.43.479-1.4.553c-.944.332-1.866.745-2.787,1.15-.929.383-1.821.855-2.728,1.3-1.8.9-3.547,1.917-5.265,2.994-.862.531-1.681,1.121-2.529,1.674-.834.575-1.63,1.2-2.456,1.792a61.305,61.305,0,0,0-15.891,18.2,53.232,53.232,0,0,0-6.917,22.992,52.159,52.159,0,0,0,4,23.589,56.006,56.006,0,0,0,13.87,19.4,63.88,63.88,0,0,0,9.675,7.263A62.254,62.254,0,0,0,540.41,185.7c.966.2,1.947.273,2.913.406.973.111,1.939.162,2.9.236a47.3,47.3,0,0,0,5.7-.059,42.13,42.13,0,0,0,10.913-2.3,52.42,52.42,0,0,0,10.294-5.1,77.787,77.787,0,0,0,17.838-16.1c1.312-1.571,2.566-3.193,3.761-4.845.59-.819,1.18-1.659,1.733-2.492s1.076-1.637,1.666-2.588q3.462-5.486,6.526-11.171t5.752-11.533c1.785-3.923,3.422-7.868,5.058-12.041,6.976-17.557,15.485-34.959,27.011-51.034.693-1.01,1.452-2.006,2.2-2.994s1.482-1.991,2.264-2.964c1.578-1.947,3.126-3.908,4.808-5.8,1.622-1.925,3.4-3.768,5.14-5.619l2.728-2.721c.914-.914,1.9-1.77,2.839-2.655s1.946-1.74,2.957-2.588,2.013-1.681,3.046-2.463c2.035-1.615,4.181-3.141,6.349-4.631a98.665,98.665,0,0,1,13.922-7.875,106.837,106.837,0,0,1,14.984-5.619,128.719,128.719,0,0,1,15.3-3.333c5.088-.76,10.132-1.217,15.124-1.5,1.254-.074,2.493-.088,3.739-.14s2.441-.111,3.812-.081l4.012.03,3.982.221A121.406,121.406,0,0,1,808.8,36.789c1.091.752,2.16,1.541,3.245,2.315l1.622,1.165c.531.4,1.048.826,1.571,1.239l3.119,2.514,3.009,2.669,1.49,1.342,1.437,1.423,2.854,2.854,2.721,3.009,1.342,1.512,1.275,1.578,2.537,3.178,2.367,3.318,1.172,1.674,1.091,1.725,2.153,3.473,1.962,3.6.966,1.8c.31.619.582,1.239.878,1.858l1.718,3.716c.538,1.254,1.01,2.537,1.512,3.8,1.054,2.522,1.822,5.14,2.654,7.735.443,1.3.708,2.625,1.062,3.938.325,1.327.679,2.64.966,3.96a113.216,113.216,0,0,1,2.153,16.016l.221,4.011C855.922,123.55,855.9,124.877,855.908,126.2Z" transform="translate(-476.02 -16.091)" fill="#003a8e"/>
          </g>
        </g>
      </g>
      <g id="Group_185" data-name="Group 185" transform="translate(251.291 158.594)">
        <g id="Group_11" data-name="Group 11">
          <g id="Group_10" data-name="Group 10">
            <path id="Path_4" data-name="Path 4" d="M501.388,43.736h.008a3.331,3.331,0,1,0-.008,0Z" transform="translate(-498.09 -37.599)" fill="#6dcdf7"/>
          </g>
        </g>
      </g>
      <g id="Group_186" data-name="Group 186" transform="translate(261.31 171.4)">
        <g id="Group_14" data-name="Group 14">
          <g id="Group_13" data-name="Group 13">
            <path id="Path_5" data-name="Path 5" d="M506.052,51.61h.022a6.675,6.675,0,1,0-.022,0Z" transform="translate(-499.448 -39.335)" fill="#6dcdf7"/>
          </g>
        </g>
      </g>
      <g id="Group_187" data-name="Group 187" transform="translate(279.433 185.762)">
        <g id="Group_17" data-name="Group 17">
          <g id="Group_16" data-name="Group 16">
            <path id="Path_6" data-name="Path 6" d="M511.815,59.687h.03a10.016,10.016,0,1,0-.03,0Z" transform="translate(-501.906 -41.283)" fill="#6dcdf7"/>
          </g>
        </g>
      </g>
      <g id="Group_188" data-name="Group 188" transform="translate(309.433 194.978)">
        <g id="Group_20" data-name="Group 20">
          <g id="Group_19" data-name="Group 19">
            <path id="Path_7" data-name="Path 7" d="M519.183,67.074h.037a13.348,13.348,0,1,0-.037,0Z" transform="translate(-505.975 -42.533)" fill="#6dcdf7"/>
          </g>
        </g>
      </g>
      <g id="Group_189" data-name="Group 189" transform="translate(0.117 294.201)">
        <g id="Group_23" data-name="Group 23">
          <g id="Group_22" data-name="Group 22">
            <path id="Path_8" data-name="Path 8" d="M508.934,121.38a31.782,31.782,0,0,1-11.172,1.9,34.739,34.739,0,0,1-17.859-4.476,30.884,30.884,0,0,1-11.761-12.034,34.1,34.1,0,0,1-4.114-16.591,37.146,37.146,0,0,1,4.114-17.638A30.4,30.4,0,0,1,479.63,60.376a32.208,32.208,0,0,1,16.776-4.387,35.88,35.88,0,0,1,10.721,1.541,38.189,38.189,0,0,1,8.723,3.886l-4.158,9.859a25.693,25.693,0,0,0-14.925-5.154,20.126,20.126,0,0,0-10.81,3.119,22.939,22.939,0,0,0-8,8.5,23.929,23.929,0,0,0-2.986,11.806,26.339,26.339,0,0,0,2.758,12.167,20.412,20.412,0,0,0,7.868,8.406,22.709,22.709,0,0,0,11.806,3.031,24.321,24.321,0,0,0,8.635-1.445A21.318,21.318,0,0,0,512.5,108l4.432,9.409A34.231,34.231,0,0,1,508.934,121.38Z" transform="translate(-464.027 -55.989)" fill="#1a1718"/>
          </g>
        </g>
      </g>
      <g id="Group_190" data-name="Group 190" transform="translate(85.131 294.932)">
        <g id="Group_26" data-name="Group 26">
          <g id="Group_25" data-name="Group 25">
            <path id="Path_9" data-name="Path 9" d="M486.137,56.088V111.8h32.474v10.132H475.556V56.088Z" transform="translate(-475.556 -56.088)" fill="#1a1718"/>
          </g>
        </g>
      </g>
      <g id="Group_191" data-name="Group 191" transform="translate(154.682 294.201)">
        <g id="Group_29" data-name="Group 29">
          <g id="Group_28" data-name="Group 28">
            <path id="Path_10" data-name="Path 10" d="M489.515,72.949a34.259,34.259,0,0,1,12.255-12.344,32.951,32.951,0,0,1,33.639,0,34.977,34.977,0,0,1,12.344,12.388,32.94,32.94,0,0,1,.044,33.558,33.97,33.97,0,0,1-12.344,12.211,33.779,33.779,0,0,1-33.684.044,33.33,33.33,0,0,1-12.255-12.167,33.6,33.6,0,0,1,0-33.691Zm9.4,28.537a23.3,23.3,0,0,0,8.369,8.5,22.208,22.208,0,0,0,11.622,3.163,21.584,21.584,0,0,0,11.392-3.119,22.837,22.837,0,0,0,8.185-8.5,24.428,24.428,0,0,0-.044-23.648,23.272,23.272,0,0,0-8.318-8.6,22.524,22.524,0,0,0-23.021,0,23.044,23.044,0,0,0-8.229,8.6,23.867,23.867,0,0,0-3.031,11.842A23.126,23.126,0,0,0,498.917,101.486Z" transform="translate(-484.988 -55.989)" fill="#1a1718"/>
          </g>
        </g>
      </g>
      <g id="Group_192" data-name="Group 192" transform="translate(250.099 294.201)">
        <g id="Group_32" data-name="Group 32">
          <g id="Group_31" data-name="Group 31">
            <path id="Path_11" data-name="Path 11" d="M502.448,72.949A34.375,34.375,0,0,1,514.7,60.605a32.965,32.965,0,0,1,33.647,0,34.977,34.977,0,0,1,12.344,12.388,32.939,32.939,0,0,1,.044,33.558,34.026,34.026,0,0,1-12.344,12.211,33.793,33.793,0,0,1-33.691.044,33.44,33.44,0,0,1-12.255-12.167,33.65,33.65,0,0,1,0-33.691Zm9.409,28.537a23.343,23.343,0,0,0,8.362,8.5,22.251,22.251,0,0,0,11.629,3.163,21.582,21.582,0,0,0,11.392-3.119,22.834,22.834,0,0,0,8.185-8.5,24.426,24.426,0,0,0-.044-23.648,23.234,23.234,0,0,0-8.325-8.6,22.51,22.51,0,0,0-23.014,0,23.04,23.04,0,0,0-8.229,8.6,23.867,23.867,0,0,0-3.031,11.842A23.127,23.127,0,0,0,511.857,101.486Z" transform="translate(-497.928 -55.989)" fill="#1a1718"/>
          </g>
        </g>
      </g>
      <g id="Group_193" data-name="Group 193" transform="translate(349.586 294.932)">
        <g id="Group_35" data-name="Group 35">
          <g id="Group_34" data-name="Group 34">
            <path id="Path_12" data-name="Path 12" d="M551.261,93.8a14.536,14.536,0,0,1,3.119,9.225q0,9.59-6.467,14.246t-15.965,4.66H511.42V56.088h18q10.309,0,16,4.2t5.7,12.344a17.226,17.226,0,0,1-2.212,8.908,16.321,16.321,0,0,1-6.29,6.017A20.619,20.619,0,0,1,551.261,93.8ZM522,84.123h9.136q4.513,0,6.828-2.625a9.636,9.636,0,0,0,2.3-6.6q0-4.347-2.758-6.511t-7.639-2.175H522Zm18.177,25.727a7.671,7.671,0,0,0,3.348-6.74,7.194,7.194,0,0,0-3.665-6.777,18.173,18.173,0,0,0-9.084-2.079H522v17.9h9.5A14.968,14.968,0,0,0,540.178,109.851Z" transform="translate(-511.42 -56.088)" fill="#1a1718"/>
          </g>
        </g>
      </g>
      <g id="Group_194" data-name="Group 194" transform="translate(420.582 294.201)">
        <g id="Group_38" data-name="Group 38">
          <g id="Group_37" data-name="Group 37">
            <path id="Path_13" data-name="Path 13" d="M525.569,72.949a34.371,34.371,0,0,1,12.255-12.344,32.965,32.965,0,0,1,33.647,0,34.974,34.974,0,0,1,12.344,12.388,32.985,32.985,0,0,1,.044,33.558,34.027,34.027,0,0,1-12.343,12.211,33.794,33.794,0,0,1-33.692.044,33.437,33.437,0,0,1-12.255-12.167,33.647,33.647,0,0,1,0-33.691Zm9.409,28.537a23.345,23.345,0,0,0,8.362,8.5,22.246,22.246,0,0,0,11.621,3.163,21.609,21.609,0,0,0,11.4-3.119,22.831,22.831,0,0,0,8.185-8.5,24.425,24.425,0,0,0-.044-23.648,23.348,23.348,0,0,0-8.325-8.6,22.51,22.51,0,0,0-23.014,0,22.926,22.926,0,0,0-8.229,8.6A23.79,23.79,0,0,0,531.9,89.724,23.125,23.125,0,0,0,534.978,101.486Z" transform="translate(-521.048 -55.989)" fill="#1a1718"/>
          </g>
        </g>
      </g>
      <g id="Group_195" data-name="Group 195" transform="translate(512.828 294.932)">
        <g id="Group_41" data-name="Group 41">
          <g id="Group_40" data-name="Group 40">
            <path id="Path_14" data-name="Path 14" d="M577.6,56.088V66.212h-17v55.717H550.112V66.212H533.558V56.088Z" transform="translate(-533.558 -56.088)" fill="#1a1718"/>
          </g>
        </g>
      </g>
      <g id="Group_196" data-name="Group 196" transform="translate(0 410.495)">
        <g id="Group_44" data-name="Group 44">
          <g id="Group_43" data-name="Group 43">
            <path id="Path_15" data-name="Path 15" d="M478.715,71.76v1.49h-6.607V94.213h-1.556V73.249h-6.541V71.76Z" transform="translate(-464.011 -71.76)" fill="#6dcdf7"/>
          </g>
        </g>
      </g>
      <g id="Group_197" data-name="Group 197" transform="translate(76.968 410.495)">
        <g id="Group_47" data-name="Group 47">
          <g id="Group_46" data-name="Group 46">
            <path id="Path_16" data-name="Path 16" d="M488.3,71.76v1.49H476v8.915h11.068v1.49H476v9.07h12.742v1.49h-14.3V71.76Z" transform="translate(-474.449 -71.76)" fill="#6dcdf7"/>
          </g>
        </g>
      </g>
      <g id="Group_198" data-name="Group 198" transform="translate(152.682 410.244)">
        <g id="Group_50" data-name="Group 50">
          <g id="Group_49" data-name="Group 49">
            <path id="Path_17" data-name="Path 17" d="M499.479,94.194a11.007,11.007,0,0,1-3.318.487,11.532,11.532,0,0,1-5.973-1.519,10.68,10.68,0,0,1-4.034-4.107,11.558,11.558,0,0,1-1.438-5.693,11.915,11.915,0,0,1,1.482-5.914,11.094,11.094,0,0,1,9.837-5.722,11.646,11.646,0,0,1,6.135,1.7l-.664,1.423a10.257,10.257,0,0,0-5.442-1.644,9.279,9.279,0,0,0-4.867,1.349,9.823,9.823,0,0,0-3.561,3.665,10.2,10.2,0,0,0-1.313,5.073,10.527,10.527,0,0,0,1.2,4.985,9.182,9.182,0,0,0,3.414,3.591,9.791,9.791,0,0,0,5.125,1.327,10.071,10.071,0,0,0,5.471-1.615l.73,1.357A12.525,12.525,0,0,1,499.479,94.194Z" transform="translate(-484.717 -71.726)" fill="#6dcdf7"/>
          </g>
        </g>
      </g>
      <g id="Group_199" data-name="Group 199" transform="translate(232.882 410.495)">
        <g id="Group_53" data-name="Group 53">
          <g id="Group_52" data-name="Group 52">
            <path id="Path_18" data-name="Path 18" d="M512.229,94.213H510.68V83.654H497.142V94.213h-1.549V71.76h1.549V82.194H510.68V71.76h1.548Z" transform="translate(-495.593 -71.76)" fill="#6dcdf7"/>
          </g>
        </g>
      </g>
      <g id="Group_200" data-name="Group 200" transform="translate(313.588 410.495)">
        <g id="Group_56" data-name="Group 56">
          <g id="Group_55" data-name="Group 55">
            <path id="Path_19" data-name="Path 19" d="M508.086,71.76V92.724h12.3v1.49H506.538V71.76Z" transform="translate(-506.538 -71.76)" fill="#6dcdf7"/>
          </g>
        </g>
      </g>
      <g id="Group_201" data-name="Group 201" transform="translate(387.613 409.514)">
        <g id="Group_59" data-name="Group 59">
          <g id="Group_58" data-name="Group 58">
            <path id="Path_20" data-name="Path 20" d="M533.942,95.061h1.741l-9.491-23.434h-.125l-9.49,23.434h1.556L526.1,75.137ZM526.1,75.137" transform="translate(-516.577 -71.627)" fill="#6dcdf7"/>
          </g>
        </g>
      </g>
      <g id="Group_202" data-name="Group 202" transform="translate(468.829 410.495)">
        <g id="Group_62" data-name="Group 62">
          <g id="Group_61" data-name="Group 61">
            <path id="Path_21" data-name="Path 21" d="M539.279,84.819a5,5,0,0,1,1.246,3.414,5.43,5.43,0,0,1-.981,3.289,5.9,5.9,0,0,1-2.6,2.028,9.1,9.1,0,0,1-3.51.664h-5.847V71.76h4.962q6.836,0,6.836,5.693a6.132,6.132,0,0,1-.87,3.274A5.149,5.149,0,0,1,536,82.8,6.843,6.843,0,0,1,539.279,84.819ZM529.14,82.26h4.144a4.388,4.388,0,0,0,3.4-1.231A4.729,4.729,0,0,0,537.8,77.74a4.086,4.086,0,0,0-1.357-3.4,5.956,5.956,0,0,0-3.827-1.091H529.14Zm8.222,9.357a3.88,3.88,0,0,0,1.585-3.318,3.841,3.841,0,0,0-1.7-3.414,6.93,6.93,0,0,0-3.967-1.143H529.14V92.79h4.24A6.506,6.506,0,0,0,537.362,91.618Z" transform="translate(-527.591 -71.76)" fill="#6dcdf7"/>
          </g>
        </g>
      </g>
      <g id="Group_203" data-name="Group 203" transform="translate(542.894 410.369)">
        <g id="Group_65" data-name="Group 65">
          <g id="Group_64" data-name="Group 64">
            <path id="Path_22" data-name="Path 22" d="M547.848,73.483a10.044,10.044,0,0,0-2.714-.383,5.434,5.434,0,0,0-3.547,1.091,3.465,3.465,0,0,0-1.327,2.8,3.009,3.009,0,0,0,.715,2.035,5.606,5.606,0,0,0,1.814,1.394q1.107.553,2.846,1.217a19.846,19.846,0,0,1,3.149,1.423,6.464,6.464,0,0,1,2.1,1.976,5.59,5.59,0,0,1,.855,3.215,6.184,6.184,0,0,1-.885,3.3,5.879,5.879,0,0,1-2.485,2.227,8.053,8.053,0,0,1-3.65.789,12.789,12.789,0,0,1-7.086-2.308l.73-1.261a11.967,11.967,0,0,0,2.876,1.549,9.169,9.169,0,0,0,3.318.664,6.753,6.753,0,0,0,2.706-.553,4.941,4.941,0,0,0,2.087-1.674,4.523,4.523,0,0,0,.811-2.706,4.118,4.118,0,0,0-.745-2.5,5.756,5.756,0,0,0-1.865-1.63,21.476,21.476,0,0,0-2.832-1.246,26.058,26.058,0,0,1-3.134-1.349,6.327,6.327,0,0,1-2.072-1.718,4.276,4.276,0,0,1-.833-2.691,4.928,4.928,0,0,1,.8-2.795,5.393,5.393,0,0,1,2.249-1.9,7.811,7.811,0,0,1,3.208-.708,12.614,12.614,0,0,1,3.149.413,14.233,14.233,0,0,1,2.891,1.04l-.6,1.2A15.034,15.034,0,0,0,547.848,73.483Z" transform="translate(-537.635 -71.743)" fill="#6dcdf7"/>
          </g>
        </g>
      </g>
      <g id="Group_204" data-name="Group 204" transform="translate(0.117 481.726)">
        <g id="Group_68" data-name="Group 68">
          <g id="Group_67" data-name="Group 67">
            <path id="Path_23" data-name="Path 23" d="M466.409,81.42V96.227h-2.381V81.42Z" transform="translate(-464.027 -81.42)" fill="#6dcdf7"/>
          </g>
        </g>
      </g>
      <g id="Group_205" data-name="Group 205" transform="translate(21.826 481.217)">
        <g id="Group_71" data-name="Group 71">
          <g id="Group_70" data-name="Group 70">
            <path id="Path_24" data-name="Path 24" d="M480.045,81.86V97.2h-.059L469.308,86.845l.059,9.822h-2.4V81.351h.118l10.64,10.478-.044-9.969Z" transform="translate(-466.971 -81.351)" fill="#6dcdf7"/>
          </g>
        </g>
      </g>
      <g id="Group_206" data-name="Group 206" transform="translate(54.249 481.726)">
        <g id="Group_74" data-name="Group 74">
          <g id="Group_73" data-name="Group 73">
            <path id="Path_25" data-name="Path 25" d="M480.357,81.42V83.7h-6.615v4.174H479.5v2.256h-5.759v6.1h-2.374V81.42Z" transform="translate(-471.368 -81.42)" fill="#6dcdf7"/>
          </g>
        </g>
      </g>
      <g id="Group_207" data-name="Group 207" transform="translate(81.562 481.726)">
        <g id="Group_77" data-name="Group 77">
          <g id="Group_76" data-name="Group 76">
            <path id="Path_26" data-name="Path 26" d="M477.454,81.42V96.227h-2.382V81.42Z" transform="translate(-475.072 -81.42)" fill="#6dcdf7"/>
          </g>
        </g>
      </g>
      <g id="Group_208" data-name="Group 208" transform="translate(103.271 481.217)">
        <g id="Group_80" data-name="Group 80">
          <g id="Group_79" data-name="Group 79">
            <path id="Path_27" data-name="Path 27" d="M491.1,81.86V97.2h-.066L480.354,86.845l.059,9.822h-2.4V81.351h.118l10.641,10.478-.037-9.969Z" transform="translate(-478.016 -81.351)" fill="#6dcdf7"/>
          </g>
        </g>
      </g>
      <g id="Group_209" data-name="Group 209" transform="translate(135.693 481.726)">
        <g id="Group_83" data-name="Group 83">
          <g id="Group_82" data-name="Group 82">
            <path id="Path_28" data-name="Path 28" d="M484.795,81.42V96.227h-2.381V81.42Z" transform="translate(-482.413 -81.42)" fill="#6dcdf7"/>
          </g>
        </g>
      </g>
      <g id="Group_210" data-name="Group 210" transform="translate(156.34 481.726)">
        <g id="Group_86" data-name="Group 86">
          <g id="Group_85" data-name="Group 85">
            <path id="Path_29" data-name="Path 29" d="M495.116,81.42V83.7H491.3V96.227h-2.359V83.7h-3.724V81.42Z" transform="translate(-485.213 -81.42)" fill="#6dcdf7"/>
          </g>
        </g>
      </g>
      <g id="Group_211" data-name="Group 211" transform="translate(184.509 481.726)">
        <g id="Group_89" data-name="Group 89">
          <g id="Group_88" data-name="Group 88">
            <path id="Path_30" data-name="Path 30" d="M498.862,81.42V83.7h-7.448v3.945h6.629v2.279h-6.629v4.026h7.728v2.279h-10.11V81.42Z" transform="translate(-489.033 -81.42)" fill="#6dcdf7"/>
          </g>
        </g>
      </g>
      <g id="Group_212" data-name="Group 212" transform="translate(234.916 481.726)">
        <g id="Group_92" data-name="Group 92">
          <g id="Group_91" data-name="Group 91">
            <path id="Path_31" data-name="Path 31" d="M504.01,82.681a4.448,4.448,0,0,1,1.423,3.5,5.694,5.694,0,0,1-.509,2.389,4.14,4.14,0,0,1-1.637,1.807,5.372,5.372,0,0,1-2.9.7h-2.139v5.147h-2.382V81.42h4.189A5.767,5.767,0,0,1,504.01,82.681Zm-2.05,5.707a2.343,2.343,0,0,0,.856-1.018,2.937,2.937,0,0,0,.258-1.15,2.767,2.767,0,0,0-.6-1.725,2.363,2.363,0,0,0-2.021-.8h-2.2v5.1h2.139A2.674,2.674,0,0,0,501.96,88.388Z" transform="translate(-495.869 -81.42)" fill="#6dcdf7"/>
          </g>
        </g>
      </g>
      <g id="Group_213" data-name="Group 213" transform="translate(261.683 481.564)">
        <g id="Group_95" data-name="Group 95">
          <g id="Group_94" data-name="Group 94">
            <path id="Path_32" data-name="Path 32" d="M500.517,85.21a7.706,7.706,0,0,1,2.758-2.773,7.4,7.4,0,0,1,7.566,0,7.748,7.748,0,0,1,2.78,2.787,7.383,7.383,0,0,1,.007,7.543,7.611,7.611,0,0,1-2.773,2.743,7.616,7.616,0,0,1-7.58.015,7.549,7.549,0,0,1-2.758-2.736,7.568,7.568,0,0,1,0-7.58Zm2.116,6.423a5.3,5.3,0,0,0,1.88,1.91,5.035,5.035,0,0,0,2.618.708,4.787,4.787,0,0,0,2.559-.7,5.153,5.153,0,0,0,1.843-1.91,5.47,5.47,0,0,0-.007-5.316,5.181,5.181,0,0,0-1.873-1.932,5.041,5.041,0,0,0-5.176,0,5.064,5.064,0,0,0-1.851,1.932,5.32,5.32,0,0,0-.686,2.662A5.254,5.254,0,0,0,502.633,91.633Z" transform="translate(-499.499 -81.398)" fill="#6dcdf7"/>
          </g>
        </g>
      </g>
      <g id="Group_214" data-name="Group 214" transform="translate(294.069 481.645)">
        <g id="Group_98" data-name="Group 98">
          <g id="Group_97" data-name="Group 97">
            <path id="Path_33" data-name="Path 33" d="M509.443,83.5a2.819,2.819,0,0,0-1.74.487,1.6,1.6,0,0,0-.641,1.342,1.654,1.654,0,0,0,.8,1.394,10.78,10.78,0,0,0,2.249,1.113,9.113,9.113,0,0,1,1.88.885,4.067,4.067,0,0,1,1.3,1.349,4.237,4.237,0,0,1,.5,2.161,3.929,3.929,0,0,1-.59,2.131,4.1,4.1,0,0,1-1.7,1.526,5.722,5.722,0,0,1-2.647.568,8.732,8.732,0,0,1-2.64-.413,8.34,8.34,0,0,1-2.323-1.15l1.055-1.851a6.918,6.918,0,0,0,1.785.944,5.57,5.57,0,0,0,1.9.376,3.421,3.421,0,0,0,1.888-.516,1.76,1.76,0,0,0,.818-1.6,1.784,1.784,0,0,0-.685-1.423,6.645,6.645,0,0,0-1.9-1.032,17.37,17.37,0,0,1-2.094-.929,4.3,4.3,0,0,1-1.431-1.283,3.375,3.375,0,0,1-.6-2.065,3.765,3.765,0,0,1,1.231-2.92,4.971,4.971,0,0,1,3.245-1.187,8.705,8.705,0,0,1,2.574.339,8.2,8.2,0,0,1,2.065.944l-.892,1.807A7.554,7.554,0,0,0,509.443,83.5Z" transform="translate(-503.891 -81.409)" fill="#6dcdf7"/>
          </g>
        </g>
      </g>
      <g id="Group_215" data-name="Group 215" transform="translate(321.16 481.645)">
        <g id="Group_101" data-name="Group 101">
          <g id="Group_100" data-name="Group 100">
            <path id="Path_34" data-name="Path 34" d="M513.125,83.5a2.8,2.8,0,0,0-1.74.487,1.6,1.6,0,0,0-.642,1.342,1.637,1.637,0,0,0,.8,1.394,10.4,10.4,0,0,0,2.249,1.113,9.3,9.3,0,0,1,1.88.885,4.046,4.046,0,0,1,1.29,1.349,4.167,4.167,0,0,1,.509,2.161,4,4,0,0,1-.59,2.131,4.118,4.118,0,0,1-1.711,1.526,5.71,5.71,0,0,1-2.64.568,8.777,8.777,0,0,1-2.647-.413,8.338,8.338,0,0,1-2.323-1.15l1.062-1.851a6.866,6.866,0,0,0,1.777.944,5.571,5.571,0,0,0,1.9.376,3.446,3.446,0,0,0,1.9-.516,1.77,1.77,0,0,0,.811-1.6,1.8,1.8,0,0,0-.678-1.423,6.856,6.856,0,0,0-1.9-1.032,16.8,16.8,0,0,1-2.094-.929,4.245,4.245,0,0,1-1.438-1.283,3.42,3.42,0,0,1-.6-2.065,3.741,3.741,0,0,1,1.231-2.92,4.969,4.969,0,0,1,3.245-1.187,8.777,8.777,0,0,1,2.573.339,8.321,8.321,0,0,1,2.065.944l-.9,1.807A7.528,7.528,0,0,0,513.125,83.5Z" transform="translate(-507.565 -81.409)" fill="#6dcdf7"/>
          </g>
        </g>
      </g>
      <g id="Group_216" data-name="Group 216" transform="translate(349.44 481.726)">
        <g id="Group_104" data-name="Group 104">
          <g id="Group_103" data-name="Group 103">
            <path id="Path_35" data-name="Path 35" d="M513.782,81.42V96.227H511.4V81.42Z" transform="translate(-511.4 -81.42)" fill="#6dcdf7"/>
          </g>
        </g>
      </g>
      <g id="Group_217" data-name="Group 217" transform="translate(371.142 481.726)">
        <g id="Group_107" data-name="Group 107">
          <g id="Group_106" data-name="Group 106">
            <path id="Path_36" data-name="Path 36" d="M523.3,89.9a3.25,3.25,0,0,1,.7,2.079,3.661,3.661,0,0,1-1.453,3.2,5.964,5.964,0,0,1-3.591,1.047h-4.616V81.42h4.048a5.988,5.988,0,0,1,3.6.944,3.24,3.24,0,0,1,1.283,2.78,3.892,3.892,0,0,1-.494,2.006,3.725,3.725,0,0,1-1.416,1.349A4.6,4.6,0,0,1,523.3,89.9Zm-6.577-2.175h2.05a1.933,1.933,0,0,0,1.541-.59,2.149,2.149,0,0,0,.516-1.482,1.758,1.758,0,0,0-.62-1.467,2.72,2.72,0,0,0-1.718-.487h-1.77Zm4.085,5.788a1.724,1.724,0,0,0,.752-1.519,1.614,1.614,0,0,0-.819-1.519,4.053,4.053,0,0,0-2.05-.472h-1.969v4.026h2.138A3.353,3.353,0,0,0,520.81,93.513Z" transform="translate(-514.343 -81.42)" fill="#6dcdf7"/>
          </g>
        </g>
      </g>
      <g id="Group_218" data-name="Group 218" transform="translate(399.213 481.726)">
        <g id="Group_110" data-name="Group 110">
          <g id="Group_109" data-name="Group 109">
            <path id="Path_37" data-name="Path 37" d="M520.532,81.42V96.227H518.15V81.42Z" transform="translate(-518.15 -81.42)" fill="#6dcdf7"/>
          </g>
        </g>
      </g>
      <g id="Group_219" data-name="Group 219" transform="translate(420.914 481.726)">
        <g id="Group_113" data-name="Group 113">
          <g id="Group_112" data-name="Group 112">
            <path id="Path_38" data-name="Path 38" d="M523.475,81.42V93.948h7.3v2.279h-9.681V81.42Z" transform="translate(-521.093 -81.42)" fill="#6dcdf7"/>
          </g>
        </g>
      </g>
      <g id="Group_220" data-name="Group 220" transform="translate(448.987 481.726)">
        <g id="Group_116" data-name="Group 116">
          <g id="Group_115" data-name="Group 115">
            <path id="Path_39" data-name="Path 39" d="M527.282,81.42V96.227H524.9V81.42Z" transform="translate(-524.9 -81.42)" fill="#6dcdf7"/>
          </g>
        </g>
      </g>
      <g id="Group_221" data-name="Group 221" transform="translate(469.635 481.726)">
        <g id="Group_119" data-name="Group 119">
          <g id="Group_118" data-name="Group 118">
            <path id="Path_40" data-name="Path 40" d="M537.6,81.42V83.7h-3.819V96.227h-2.36V83.7H527.7V81.42Z" transform="translate(-527.7 -81.42)" fill="#6dcdf7"/>
          </g>
        </g>
      </g>
      <g id="Group_222" data-name="Group 222" transform="translate(497.808 481.726)">
        <g id="Group_122" data-name="Group 122">
          <g id="Group_121" data-name="Group 121">
            <path id="Path_41" data-name="Path 41" d="M533.9,81.42V96.227h-2.374V81.42Z" transform="translate(-531.521 -81.42)" fill="#6dcdf7"/>
          </g>
        </g>
      </g>
      <g id="Group_223" data-name="Group 223" transform="translate(519.51 481.726)">
        <g id="Group_125" data-name="Group 125">
          <g id="Group_124" data-name="Group 124">
            <path id="Path_42" data-name="Path 42" d="M544.286,81.42V83.7h-7.441v3.945h6.629v2.279h-6.629v4.026h7.728v2.279h-10.11V81.42Z" transform="translate(-534.464 -81.42)" fill="#6dcdf7"/>
          </g>
        </g>
      </g>
      <g id="Group_224" data-name="Group 224" transform="translate(546.97 481.645)">
        <g id="Group_128" data-name="Group 128">
          <g id="Group_127" data-name="Group 127">
            <path id="Path_43" data-name="Path 43" d="M543.741,83.5a2.817,2.817,0,0,0-1.74.487,1.6,1.6,0,0,0-.642,1.342,1.655,1.655,0,0,0,.8,1.394,10.762,10.762,0,0,0,2.249,1.113,9.115,9.115,0,0,1,1.88.885,3.973,3.973,0,0,1,1.291,1.349,4.165,4.165,0,0,1,.509,2.161,3.93,3.93,0,0,1-.59,2.131,4.1,4.1,0,0,1-1.7,1.526,5.721,5.721,0,0,1-2.647.568,8.814,8.814,0,0,1-2.647-.413,8.4,8.4,0,0,1-2.315-1.15l1.054-1.851a6.916,6.916,0,0,0,1.784.944,5.573,5.573,0,0,0,1.9.376,3.42,3.42,0,0,0,1.888-.516,1.76,1.76,0,0,0,.819-1.6,1.783,1.783,0,0,0-.686-1.423,6.64,6.64,0,0,0-1.9-1.032,17.352,17.352,0,0,1-2.094-.929,4.293,4.293,0,0,1-1.43-1.283,3.377,3.377,0,0,1-.6-2.065,3.767,3.767,0,0,1,1.232-2.92,4.969,4.969,0,0,1,3.244-1.187,8.706,8.706,0,0,1,2.574.339,8.2,8.2,0,0,1,2.065.944L547.14,84.5A7.553,7.553,0,0,0,543.741,83.5Z" transform="translate(-538.188 -81.409)" fill="#6dcdf7"/>
          </g>
        </g>
      </g>
    </g>
  </g>
</svg>
