<svg xmlns="http://www.w3.org/2000/svg" width="124" height="124" viewBox="0 0 124 124">
  <g id="Group_553" data-name="Group 553" transform="translate(12213 4801)">
    <circle id="Ellipse_756" data-name="Ellipse 756" cx="62" cy="62" r="62" transform="translate(-12213 -4801)" fill="#fff" opacity="0.57"/>
    <g id="Group_547" data-name="Group 547" transform="translate(7841.068 -2124.585)">
      <rect id="Rectangle_1137" data-name="Rectangle 1137" width="67.837" height="50.188" rx="6" transform="translate(-20025.748 -2635.541)" fill="#fff" stroke="#194d99" stroke-width="1.5"/>
      <path id="Path_12703" data-name="Path 12703" d="M165.428,251.4H108.985a6.513,6.513,0,0,0-6.513,6.513v5.257a5.423,5.423,0,0,0,3.825,5.2c8.366,2.546,19.145,4.079,30.909,4.079s22.543-1.533,30.909-4.079a5.423,5.423,0,0,0,3.825-5.2V257.91a6.513,6.513,0,0,0-6.513-6.513Z" transform="translate(-20129 -2886.938)" fill="#fff" stroke="#194d99" stroke-width="1.5"/>
      <rect id="Rectangle_1138" data-name="Rectangle 1138" width="17.487" height="6.272" rx="3.136" transform="translate(-20000.572 -2617.213)" fill="#fff" stroke="#194d99" stroke-width="1.5"/>
      <path id="Path_12704" data-name="Path 12704" d="M146.6,243.459v-4.532h18.78v4.532h4.342v-4.532a4.342,4.342,0,0,0-4.342-4.342H146.6a4.342,4.342,0,0,0-4.342,4.342v4.532Z" transform="translate(-20147.787 -2879)" fill="#fff" stroke="#194d99" stroke-width="1.5"/>
      <rect id="Rectangle_1139" data-name="Rectangle 1139" width="7.45" height="2.358" rx="1.179" transform="translate(-19998.891 -2615.256)" fill="#fff" stroke="#194d99" stroke-width="1.5" opacity="0.8"/>
    </g>
  </g>
</svg>
