<svg xmlns="http://www.w3.org/2000/svg" width="162.048" height="147.778" viewBox="0 0 162.048 147.778">
  <g id="Group_319" data-name="Group 319" transform="translate(-866.422 -1192.89)">
    <path id="Path_268" data-name="Path 268" d="M1018.614,1246.147a1.924,1.924,0,1,1,0-.009Z" fill="#4fc5f4"/>
    <path id="Path_338" data-name="Path 338" d="M930.214,1234.261v-20.568a6.406,6.406,0,0,1,6.406-6.406h84.166a6.406,6.406,0,0,1,6.406,6.406v84.166a6.406,6.406,0,0,1-6.406,6.406H936.62a6.406,6.406,0,0,1-6.406-6.406v-31.5" fill="none" stroke="#fff" stroke-linecap="round" stroke-miterlimit="10" stroke-width="2.556"/>
    <path id="Path_339" data-name="Path 339" d="M965.585,1207.287a13.118,13.118,0,1,1,26.237,0" fill="none" stroke="#fff" stroke-miterlimit="10" stroke-width="2.556"/>
    <circle id="Ellipse_577" data-name="Ellipse 577" cx="11.971" cy="11.971" r="11.971" transform="translate(882.396 1210.595)" fill="none" stroke="#fff" stroke-miterlimit="10" stroke-width="2.556"/>
    <path id="Path_340" data-name="Path 340" d="M880.739,1264.889V1339h28.75v-85.8a3.641,3.641,0,0,1,3.642-3.641h35.314a5.022,5.022,0,0,0,3.952-1.923l7.227-9.212a2.28,2.28,0,0,0-1.794-3.688H892.381a18.3,18.3,0,0,0-14.62,7.293l-2.531,3.361a37.43,37.43,0,0,0-7.519,23.391l.278,11.915a23.341,23.341,0,0,0,9.66,18.371l2.73,1.973" fill="none" stroke="#fff" stroke-linecap="round" stroke-miterlimit="10" stroke-width="2.556"/>
    <line id="Line_23" data-name="Line 23" y2="38.142" transform="translate(1016.689 1255.776)" fill="none" stroke="#fff" stroke-linecap="round" stroke-miterlimit="10" stroke-width="2.556"/>
    <line id="Line_24" data-name="Line 24" y2="19.071" transform="translate(1009.073 1274.847)" fill="none" stroke="#fff" stroke-linecap="round" stroke-miterlimit="10" stroke-width="2.556"/>
    <line id="Line_25" data-name="Line 25" y2="9.535" transform="translate(1001.747 1284.383)" fill="none" stroke="#fff" stroke-linecap="round" stroke-miterlimit="10" stroke-width="2.556"/>
    <path id="Path_341" data-name="Path 341" d="M940.158,1290.462l9.158-9.157a1.264,1.264,0,0,1,1.788,0l6.432,6.431a1.265,1.265,0,0,0,1.789,0l20.742-20.743a1.265,1.265,0,0,1,1.789,0l5.963,5.963a1.265,1.265,0,0,0,1.789,0l16.441-16.44" fill="none" stroke="#50c5f3" stroke-linecap="round" stroke-miterlimit="10" stroke-width="2.556"/>
    <circle id="Ellipse_578" data-name="Ellipse 578" cx="1.389" cy="1.389" r="1.389" transform="translate(928.825 1257.705)" fill="#fff"/>
    <line id="Line_26" data-name="Line 26" y1="42.29" transform="translate(894.367 1296.71)" fill="none" stroke="#fff" stroke-linecap="round" stroke-miterlimit="10" stroke-width="2.556"/>
    <line id="Line_27" data-name="Line 27" x2="159.492" transform="translate(867.701 1339)" fill="none" stroke="#fff" stroke-linecap="round" stroke-miterlimit="10" stroke-width="2.556"/>
    <line id="Line_28" data-name="Line 28" x1="14.311" y2="34.735" transform="translate(956.258 1304.266)" fill="none" stroke="#fff" stroke-linecap="round" stroke-miterlimit="10" stroke-width="2.556"/>
    <line id="Line_29" data-name="Line 29" x2="14.311" y2="34.735" transform="translate(994.591 1304.266)" fill="none" stroke="#fff" stroke-linecap="round" stroke-miterlimit="10" stroke-width="2.556"/>
  </g>
</svg>
