<svg xmlns="http://www.w3.org/2000/svg" width="175.339" height="175.339" viewBox="0 0 175.339 175.339">
  <g id="Group_320" data-name="Group 320" transform="translate(-2178.092 -43.646)">
    <circle id="Ellipse_579" data-name="Ellipse 579" cx="54.564" cy="54.564" r="54.564" transform="translate(2211.198 76.752)" fill="none" stroke="#fff" stroke-miterlimit="10" stroke-width="2.2"/>
    <path id="Path_342" data-name="Path 342" d="M2265.761,114.147v16.728l21.829,22.269" fill="none" stroke="#fff" stroke-linecap="round" stroke-miterlimit="10" stroke-width="4.399"/>
    <path id="Path_343" data-name="Path 343" d="M2289.668,64.549h0a8.358,8.358,0,0,1-2.208-3.931l-1.671-6.886a8.341,8.341,0,0,0-2.063-3.783l-2.486-2.612a8.341,8.341,0,0,0-6.043-2.591h-18.871a8.341,8.341,0,0,0-6.043,2.591l-2.486,2.612a8.351,8.351,0,0,0-2.063,3.783l-1.672,6.887a8.343,8.343,0,0,1-2.206,3.93l-.206.206a8.345,8.345,0,0,1-5.9,2.445h-.293a8.345,8.345,0,0,1-4.342-1.219l-6.05-3.687a8.357,8.357,0,0,0-4.135-1.216l-3.6-.089a8.341,8.341,0,0,0-6.106,2.441l-6.671,6.671-6.672,6.672a8.341,8.341,0,0,0-2.441,6.106l.089,3.6a8.358,8.358,0,0,0,1.216,4.135l3.688,6.051a8.345,8.345,0,0,1,1.219,4.339v.292a8.345,8.345,0,0,1-2.444,5.9l-.208.207a8.341,8.341,0,0,1-3.931,2.208l-6.886,1.672a8.341,8.341,0,0,0-3.783,2.063l-2.612,2.486a8.345,8.345,0,0,0-2.591,6.043v18.871a8.345,8.345,0,0,0,2.591,6.043l2.612,2.485a8.342,8.342,0,0,0,3.783,2.064l6.886,1.671a8.358,8.358,0,0,1,3.931,2.208l.208.208a8.345,8.345,0,0,1,2.444,5.9v.292a8.347,8.347,0,0,1-1.219,4.339l-3.688,6.051a8.358,8.358,0,0,0-1.216,4.135l-.089,3.6a8.341,8.341,0,0,0,2.441,6.106l6.672,6.671,6.671,6.672a8.342,8.342,0,0,0,6.106,2.441l3.6-.089a8.357,8.357,0,0,0,4.135-1.216l6.051-3.688a8.349,8.349,0,0,1,4.339-1.219h.292a8.346,8.346,0,0,1,5.9,2.444l.208.208a8.353,8.353,0,0,1,2.208,3.931l1.671,6.885a8.354,8.354,0,0,0,2.063,3.784l2.486,2.612a8.345,8.345,0,0,0,6.043,2.591H2275.2a8.345,8.345,0,0,0,6.043-2.591l2.486-2.612a8.345,8.345,0,0,0,2.063-3.784l1.672-6.886a8.343,8.343,0,0,1,2.206-3.93l.206-.206a8.34,8.34,0,0,1,5.9-2.445h.294a8.351,8.351,0,0,1,4.341,1.218l6.05,3.688a8.357,8.357,0,0,0,4.135,1.216l3.6.089a8.342,8.342,0,0,0,6.106-2.441l6.672-6.672,6.671-6.671a8.341,8.341,0,0,0,2.441-6.106l-.089-3.6a8.358,8.358,0,0,0-1.216-4.135l-3.688-6.051a8.339,8.339,0,0,1-1.218-4.339v-.292a8.345,8.345,0,0,1,2.444-5.9l.208-.208a8.357,8.357,0,0,1,3.931-2.208l6.886-1.671a8.341,8.341,0,0,0,3.783-2.064l2.612-2.485a8.341,8.341,0,0,0,2.591-6.043V121.88a8.341,8.341,0,0,0-2.591-6.043l-2.612-2.486a8.339,8.339,0,0,0-3.783-2.063l-6.886-1.672a8.34,8.34,0,0,1-3.931-2.208l-.208-.207a8.345,8.345,0,0,1-2.444-5.9v-.292a8.337,8.337,0,0,1,1.218-4.339l3.688-6.051A8.358,8.358,0,0,0,2336,86.483l.089-3.6a8.341,8.341,0,0,0-2.441-6.106l-6.671-6.672L2320.3,63.43a8.341,8.341,0,0,0-6.106-2.441l-3.656.091a8.344,8.344,0,0,0-4.052,1.166l-5.955,3.536a8.353,8.353,0,0,1-3.762,1.154l-.708.042A8.344,8.344,0,0,1,2289.668,64.549Z" fill="none" stroke="#fff" stroke-miterlimit="6" stroke-width="2.2"/>
    <circle id="Ellipse_580" data-name="Ellipse 580" cx="2.122" cy="2.122" r="2.122" transform="translate(2263.642 101.019)" fill="#50c5f3"/>
    <circle id="Ellipse_581" data-name="Ellipse 581" cx="2.122" cy="2.122" r="2.122" transform="translate(2292.088 157.642)" fill="#50c5f3"/>
  </g>
</svg>
