<svg xmlns="http://www.w3.org/2000/svg" xmlns:xlink="http://www.w3.org/1999/xlink" width="872.503" height="562.808" viewBox="0 0 872.503 562.808"><defs><style>.a{fill:none;}.b{fill:#bcd0e2;}.c{fill:#e1eefe;}.d{fill:#dc340d;}.e{fill:#ffc40e;}.f{fill:#3bb6d5;}.g{fill:#edf4fc;}.h{fill:#d9e1e4;}.i{fill:#6dcdf7;}.j{fill:#bac2c6;}.k,.m{fill:#fff;}.k{opacity:0.34;}.l{fill:#165670;}.n{fill:#b0bfde;}.o{fill:#97c1e4;}.p{fill:#a6d0f3;}.q{fill:#bce2ff;}.r{clip-path:url(#a);}.s{fill:#9ac3e6;}.t{fill:#9fc8eb;}.u{fill:#a4cdf0;}.v{fill:#a8d2f5;}.w{fill:#aed7fa;}.x{fill:#b2dcff;}.y{fill:#b4dbff;}.z{fill:#b5deff;}.aa{fill:#b9e0ff;}.ab{fill:#c1e6ff;}.ac{fill:#c4e9ff;}.ad{fill:#9cc3e8;}.ae{clip-path:url(#b);}.af{clip-path:url(#c);}.ag{fill:#c1e8ff;}.ah{fill:#acd5f8;}.ai{clip-path:url(#d);}.aj{clip-path:url(#e);}.ak{fill:#bfe5ff;}.al{fill:#b0d8fd;}.am{fill:#c2e9ff;}.an{fill:#a0c8ec;}.ao{fill:#eaffff;}.ap{fill:#9ac1e2;}.aq{fill:#9fc4e5;}.ar{fill:#bbe0ff;}.as{fill:#bae0ff;}.at{fill:#c7eaff;}.au{clip-path:url(#f);}.av{fill:#97bedf;}.aw{fill:#9dc3e4;}.ax{fill:#a2c8e9;}.ay{fill:#a7ceee;}.az{fill:#add3f3;}.ba{fill:#b2d8f8;}.bb{fill:#b7ddfd;}.bc{fill:#bce1ff;}.bd{clip-path:url(#g);}.be{fill:#92b9da;}.bf{fill:#c5e8ff;}.bg{clip-path:url(#h);}.bh{fill:#a9d0f0;}.bi{fill:#c3e6ff;}.bj{clip-path:url(#i);}.bk{fill:#acd2f2;}.bl{clip-path:url(#j);}.bm{clip-path:url(#k);}.bn{fill:#b8defe;}.bo{fill:#c0e4ff;}.bp{clip-path:url(#l);}.bq{fill:#95bcdd;}.br{fill:#bee2ff;}.bs{fill:#edffff;}.bt{fill:#98bfe0;}</style><clipPath id="a"><path class="a" d="M2757.584,1347.731l9.764,25.395c-2.675-6.96-17.841-8.062-35.8-2.194a82.075,82.075,0,0,0-24.759,12.739c-6.238,4.915-9.969,10.113-9.735,14.435a6.324,6.324,0,0,0,.4,1.924l-9.758-25.39a6.227,6.227,0,0,1-.409-1.927c-.228-4.322,3.5-9.525,9.739-14.441a82.225,82.225,0,0,1,24.755-12.742C2739.743,1339.669,2754.915,1340.767,2757.584,1347.731Z" transform="translate(-2687.277 -1341.742)"/></clipPath><clipPath id="b"><path class="a" d="M2587.5,1473.893l9.767,25.4c-5.582-2.13-9.655-5.2-11.9-9.168l-9.764-25.387C2577.841,1468.7,2581.922,1471.764,2587.5,1473.893Z" transform="translate(-2575.601 -1464.737)"/></clipPath><clipPath id="c"><path class="a" d="M2943.931,1343.91l9.764,25.394c-2.2,5.365-6.27,11.005-11.826,16.65l-9.758-25.387C2937.658,1354.916,2941.73,1349.28,2943.931,1343.91Z" transform="translate(-2932.111 -1343.91)"/></clipPath><clipPath id="d"><path class="a" d="M2689.794,1485l9.767,25.394a153.027,153.027,0,0,1-28.686,3.686l-9.763-25.391A153.716,153.716,0,0,0,2689.794,1485Z" transform="translate(-2661.113 -1485)"/></clipPath><clipPath id="e"><path class="a" d="M2837.463,1426.38l9.761,25.391a208.085,208.085,0,0,1-28.667,14.381l-9.761-25.394A209.156,209.156,0,0,0,2837.463,1426.38Z" transform="translate(-2808.796 -1426.38)"/></clipPath><clipPath id="f"><path class="a" d="M2268.191,1824.621q4.594,12.85,9.186,25.706c-1.962-5.491.521-12.614,8.055-20.548,17.815-18.749,57.1-34.911,87.753-36.1,17.7-.68,28.652,3.772,31.33,11.263l-9.189-25.7c-2.675-7.494-13.625-11.949-31.329-11.266-30.646,1.182-69.936,17.343-87.749,36.094C2268.713,1812,2266.23,1819.127,2268.191,1824.621Z" transform="translate(-2267.548 -1767.91)"/></clipPath><clipPath id="g"><path class="a" d="M2040.98,1977.35l9.183,25.709a29.348,29.348,0,0,0,5.417,9.174l-9.186-25.7A29.342,29.342,0,0,1,2040.98,1977.35Z" transform="translate(-2040.98 -1977.35)"/></clipPath><clipPath id="h"><path class="a" d="M2769.39,1776.394l9.187,25.706a62.6,62.6,0,0,0,5.618-11.783l-9.186-25.709A62.373,62.373,0,0,1,2769.39,1776.394Z" transform="translate(-2769.39 -1764.608)"/></clipPath><clipPath id="i"><path class="a" d="M2117.76,2033.96l9.186,25.709a125.614,125.614,0,0,0,18.643,3.363l-9.183-25.709A124.237,124.237,0,0,1,2117.76,2033.96Z" transform="translate(-2117.76 -2033.96)"/></clipPath><clipPath id="j"><path class="a" d="M2658.97,1879.661l9.18,25.708q9.831-6.671,18.362-13.685l-9.186-25.709Q2668.811,1872.989,2658.97,1879.661Z" transform="translate(-2658.97 -1865.974)"/></clipPath><clipPath id="k"><path class="a" d="M2277.88,2032.989l9.184,25.7q13.485-1.678,27.307-4.526l-9.186-25.706Q2291.352,2031.316,2277.88,2032.989Z" transform="translate(-2277.88 -2028.46)"/></clipPath><clipPath id="l"><path class="a" d="M2477.55,1974.432l9.183,25.7c9.244-3.436,18.338-7.167,27.172-11.171l-9.186-25.708C2495.882,1967.265,2486.789,1971,2477.55,1974.432Z" transform="translate(-2477.55 -1963.257)"/></clipPath></defs><rect class="b" width="795.656" height="447.627"/><rect class="c" width="795.656" height="27.657"/><path class="d" d="M626.26,1120.773a5.534,5.534,0,1,1-5.535-5.526A5.534,5.534,0,0,1,626.26,1120.773Z" transform="translate(-605.978 -1106.944)"/><path class="e" d="M665.819,1120.773a5.532,5.532,0,1,1-5.535-5.526A5.532,5.532,0,0,1,665.819,1120.773Z" transform="translate(-628.026 -1106.944)"/><path class="f" d="M705.382,1120.773a5.53,5.53,0,1,1-5.531-5.526A5.53,5.53,0,0,1,705.382,1120.773Z" transform="translate(-650.076 -1106.944)"/><rect class="g" width="686.427" height="362.635" transform="translate(83.215 56.581)"/><rect class="h" width="145.153" height="5.971" transform="translate(129.678 95.598)"/><rect class="h" width="47.023" height="5.971" transform="translate(129.678 82.874)"/><rect class="h" width="145.156" height="5.971" transform="translate(334.668 95.598)"/><rect class="i" width="7.336" height="5.97" transform="translate(347.391 307.488)"/><rect class="h" width="122.186" height="5.965" transform="translate(337.04 321.847)"/><rect class="f" width="7.334" height="5.97" transform="translate(478.215 307.488)"/><rect class="h" width="122.186" height="5.965" transform="translate(463.966 321.847)"/><rect class="h" width="47.023" height="5.971" transform="translate(344.072 82.874)"/><rect class="h" width="145.153" height="5.971" transform="translate(587.31 95.598)"/><rect class="h" width="47.021" height="5.971" transform="translate(636.916 82.874)"/><path class="j" d="M1126.726,1611.024H899.8V1353.8h226.925Zm-226.655-.272h226.382V1354.074H900.073Z" transform="translate(-764.589 -1239.888)"/><rect class="j" width="226.657" height="0.273" transform="translate(135.347 334.157)"/><rect class="j" width="226.657" height="0.269" transform="translate(135.347 297.452)"/><rect class="j" width="226.657" height="0.27" transform="translate(135.347 260.745)"/><rect class="j" width="226.657" height="0.274" transform="translate(135.347 224.033)"/><rect class="j" width="226.657" height="0.269" transform="translate(135.347 187.327)"/><rect class="j" width="226.657" height="0.272" transform="translate(135.347 150.62)"/><rect class="j" width="0.273" height="256.952" transform="translate(229.24 114.049)"/><rect class="j" width="0.269" height="256.952" transform="translate(210.764 114.049)"/><path class="j" d="M279.221,269.318l-.191-.192L290.754,257.4l.193.191Z" transform="translate(-155.502 -143.449)"/><path class="j" d="M279.221,352.23l-.191-.191,11.724-11.721.193.194Z" transform="translate(-155.502 -189.658)"/><rect class="j" width="16.58" height="0.273" transform="translate(123.482 199.038) rotate(-44.552)"/><rect class="j" width="16.58" height="0.272" transform="translate(123.51 235.781) rotate(-44.808)"/><path class="j" d="M279.221,600.985l-.191-.195,11.724-11.724.193.192Z" transform="translate(-155.502 -328.284)"/><rect class="j" width="16.582" height="0.273" transform="translate(123.464 309.147) rotate(-44.355)"/><path class="j" d="M279.221,766.816l-.191-.2,11.724-11.72.193.193Z" transform="translate(-155.502 -420.704)"/><path class="j" d="M848.389,1879.343h-.018l-1.159.627-.173-.69,1.456-.776h.767v6.662h-.874Z" transform="translate(-735.186 -1532.304)"/><path class="j" d="M861.861,1881.616c0,2.265-.841,3.517-2.318,3.517-1.3,0-2.183-1.221-2.2-3.425,0-2.235.964-3.463,2.319-3.463C861.061,1878.247,861.861,1879.5,861.861,1881.616Zm-3.617.1c0,1.734.532,2.717,1.351,2.717.921,0,1.364-1.075,1.364-2.774,0-1.644-.421-2.72-1.353-2.72-.793,0-1.363.966-1.363,2.777Z" transform="translate(-740.926 -1532.16)"/><path class="j" d="M845.667,1802.684v-.553l.709-.687c1.7-1.618,2.468-2.48,2.479-3.485a1.188,1.188,0,0,0-1.321-1.3,2.268,2.268,0,0,0-1.415.565l-.288-.636a2.938,2.938,0,0,1,1.888-.675,1.874,1.874,0,0,1,2.04,1.936c0,1.228-.891,2.223-2.294,3.577l-.535.492v.019h2.993v.749Z" transform="translate(-734.421 -1486.271)"/><path class="j" d="M861.861,1799.3c0,2.266-.841,3.515-2.318,3.515-1.3,0-2.183-1.218-2.2-3.425,0-2.233.964-3.462,2.319-3.462C861.061,1795.923,861.861,1797.176,861.861,1799.3Zm-3.617.1c0,1.732.532,2.715,1.351,2.715.921,0,1.364-1.075,1.364-2.776,0-1.641-.421-2.717-1.353-2.717-.793,0-1.363.962-1.363,2.777Z" transform="translate(-740.926 -1486.283)"/><path class="j" d="M845.849,1719.335a3.03,3.03,0,0,0,1.475.42c1.16,0,1.518-.739,1.508-1.291-.012-.936-.851-1.335-1.725-1.335h-.5v-.675h.5c.658,0,1.49-.339,1.49-1.128,0-.534-.34-1.005-1.167-1.005a2.448,2.448,0,0,0-1.336.442l-.233-.656a3.165,3.165,0,0,1,1.743-.511c1.311,0,1.907.777,1.907,1.586a1.655,1.655,0,0,1-1.23,1.57v.019a1.737,1.737,0,0,1,1.485,1.713c0,1.066-.831,2-2.43,2a3.363,3.363,0,0,1-1.731-.451Z" transform="translate(-734.385 -1440.402)"/><path class="j" d="M861.861,1716.968c0,2.266-.841,3.516-2.318,3.516-1.3,0-2.183-1.221-2.2-3.424,0-2.233.964-3.462,2.319-3.462C861.061,1713.594,861.861,1714.843,861.861,1716.968Zm-3.617.1c0,1.732.532,2.716,1.351,2.716.921,0,1.364-1.076,1.364-2.777,0-1.639-.421-2.716-1.353-2.716-.793,0-1.363.962-1.363,2.777Z" transform="translate(-740.926 -1440.402)"/><path class="j" d="M848.07,1638.186v-1.814h-3.1v-.594l2.974-4.252h.974v4.139h.933v.708h-.933v1.814Zm0-2.521v-2.226c0-.346.012-.7.031-1.044h-.031c-.206.389-.37.678-.554.984l-1.627,2.265v.021Z" transform="translate(-734.034 -1394.664)"/><path class="j" d="M861.861,1634.634c0,2.263-.841,3.515-2.318,3.515-1.3,0-2.183-1.219-2.2-3.421,0-2.238.964-3.466,2.319-3.466C861.061,1631.26,861.861,1632.513,861.861,1634.634Zm-3.617.1c0,1.731.532,2.715,1.351,2.715.921,0,1.364-1.076,1.364-2.776,0-1.641-.421-2.717-1.353-2.717-.793,0-1.363.966-1.363,2.777Z" transform="translate(-740.926 -1394.516)"/><path class="j" d="M849.61,1549.945h-2.541l-.256,1.713a3.323,3.323,0,0,1,.543-.042,2.8,2.8,0,0,1,1.435.359,1.9,1.9,0,0,1,.955,1.712,2.314,2.314,0,0,1-2.483,2.275,3.269,3.269,0,0,1-1.658-.409l.223-.687a3,3,0,0,0,1.426.37,1.47,1.47,0,0,0,1.578-1.446c-.012-.862-.587-1.475-1.917-1.475a6.838,6.838,0,0,0-.921.069l.427-3.2h3.188Z" transform="translate(-734.385 -1348.777)"/><path class="j" d="M861.861,1552.309c0,2.267-.841,3.518-2.318,3.518-1.3,0-2.183-1.219-2.2-3.425,0-2.233.964-3.462,2.319-3.462C861.061,1548.94,861.861,1550.189,861.861,1552.309Zm-3.617.105c0,1.731.532,2.715,1.351,2.715.921,0,1.364-1.076,1.364-2.777,0-1.639-.421-2.717-1.353-2.717-.793,0-1.363.961-1.363,2.78Z" transform="translate(-740.926 -1348.64)"/><path class="j" d="M849.326,1467.368a3.142,3.142,0,0,0-.677.041,2.7,2.7,0,0,0-2.315,2.367h.031a2.03,2.03,0,0,1,3.617,1.384,2.227,2.227,0,0,1-2.214,2.345c-1.425,0-2.358-1.105-2.358-2.838a4.2,4.2,0,0,1,1.131-3,3.624,3.624,0,0,1,2.13-.981,4.128,4.128,0,0,1,.655-.053Zm-.256,3.843a1.353,1.353,0,0,0-1.372-1.526,1.482,1.482,0,0,0-1.293.82.764.764,0,0,0-.1.4c.018,1.1.523,1.907,1.465,1.907.779,0,1.3-.648,1.3-1.6Z" transform="translate(-734.277 -1302.767)"/><path class="j" d="M861.861,1469.976c0,2.267-.841,3.515-2.318,3.515-1.3,0-2.183-1.216-2.2-3.422,0-2.235.964-3.465,2.319-3.465C861.061,1466.6,861.861,1467.855,861.861,1469.976Zm-3.617.1c0,1.732.532,2.717,1.351,2.717.921,0,1.364-1.078,1.364-2.777,0-1.641-.421-2.717-1.353-2.717-.793,0-1.363.965-1.363,2.775Z" transform="translate(-740.926 -1302.754)"/><path class="j" d="M850.151,1384.53v.6l-2.9,6.066h-.934l2.891-5.893v-.021h-3.259v-.748Z" transform="translate(-734.577 -1257.014)"/><path class="j" d="M861.861,1387.656c0,2.266-.841,3.515-2.318,3.515-1.3,0-2.183-1.218-2.2-3.422,0-2.235.964-3.464,2.319-3.464C861.061,1384.283,861.861,1385.536,861.861,1387.656Zm-3.617.1c0,1.731.532,2.715,1.351,2.715.921,0,1.364-1.076,1.364-2.777,0-1.639-.421-2.717-1.353-2.717-.793,0-1.363.962-1.363,2.777Z" transform="translate(-740.926 -1256.878)"/><path class="j" d="M953.984,1956.625v-.552l.708-.686c1.7-1.62,2.471-2.483,2.48-3.485a1.187,1.187,0,0,0-1.32-1.3,2.255,2.255,0,0,0-1.417.563l-.287-.636a2.917,2.917,0,0,1,1.884-.676,1.872,1.872,0,0,1,2.04,1.936c0,1.23-.891,2.226-2.292,3.577l-.537.49v.021h2.995v.748Z" transform="translate(-794.785 -1572.062)"/><path class="j" d="M970.172,1953.228c0,2.266-.84,3.517-2.316,3.517-1.3,0-2.183-1.221-2.207-3.423,0-2.233.965-3.463,2.319-3.463C969.373,1949.859,970.172,1951.107,970.172,1953.228Zm-3.617.1c0,1.731.53,2.715,1.352,2.715.921,0,1.363-1.075,1.363-2.777,0-1.642-.42-2.717-1.352-2.717-.788,0-1.363.966-1.363,2.782Z" transform="translate(-801.286 -1572.069)"/><path class="j" d="M980.464,1950.953h-.021l-1.159.625-.173-.686,1.454-.779h.768v6.661h-.87Z" transform="translate(-808.789 -1572.212)"/><path class="j" d="M994.1,1950.11v.594l-2.9,6.067h-.934l2.893-5.891v-.022H989.9v-.748Z" transform="translate(-814.8 -1572.21)"/><path class="j" d="M1128.09,1956.625v-.552l.708-.686c1.7-1.62,2.468-2.483,2.479-3.485a1.187,1.187,0,0,0-1.321-1.3,2.257,2.257,0,0,0-1.415.563l-.287-.635a2.919,2.919,0,0,1,1.885-.676,1.874,1.874,0,0,1,2.041,1.937c0,1.229-.893,2.226-2.3,3.577l-.533.49v.021h2.993v.748Z" transform="translate(-939.086 -1572.062)"/><path class="j" d="M1144.278,1953.228c0,2.266-.841,3.517-2.316,3.517-1.3,0-2.183-1.221-2.205-3.423,0-2.233.964-3.463,2.316-3.463C1143.481,1949.859,1144.278,1951.107,1144.278,1953.228Zm-3.618.1c0,1.731.534,2.715,1.352,2.715.924,0,1.363-1.075,1.363-2.777,0-1.642-.42-2.717-1.351-2.717-.787,0-1.363.966-1.363,2.782Z" transform="translate(-946.633 -1572.069)"/><path class="j" d="M1154.566,1950.953h-.019l-1.159.625-.176-.686,1.456-.779h.77v6.661h-.872Z" transform="translate(-955.219 -1572.212)"/><path class="j" d="M1163.54,1954.943a1.91,1.91,0,0,1,1.323-1.784l-.01-.03a1.653,1.653,0,0,1-1.057-1.5,1.864,1.864,0,0,1,2.061-1.77,1.719,1.719,0,0,1,1.938,1.638,1.7,1.7,0,0,1-1.1,1.559v.03a1.847,1.847,0,0,1,1.341,1.722,2.052,2.052,0,0,1-2.264,1.938C1164.381,1956.749,1163.54,1955.917,1163.54,1954.943Zm3.587-.04c0-.81-.563-1.2-1.465-1.454a1.444,1.444,0,0,0-1.2,1.372,1.233,1.233,0,0,0,1.334,1.269,1.206,1.206,0,0,0,1.329-1.187Zm-2.48-3.332c0,.664.5,1.023,1.271,1.23a1.314,1.314,0,0,0,1.014-1.209,1.033,1.033,0,0,0-1.126-1.086,1.059,1.059,0,0,0-1.159,1.064Z" transform="translate(-961.993 -1572.071)"/><path class="j" d="M1302.19,1956.625v-.552l.7-.686c1.7-1.62,2.473-2.483,2.483-3.485a1.187,1.187,0,0,0-1.321-1.3,2.256,2.256,0,0,0-1.416.563l-.285-.635a2.907,2.907,0,0,1,1.883-.676,1.874,1.874,0,0,1,2.041,1.937c0,1.229-.892,2.226-2.294,3.577l-.535.49v.021h2.993v.748Z" transform="translate(-1051.531 -1572.062)"/><path class="j" d="M1318.378,1953.228c0,2.266-.839,3.517-2.314,3.517-1.305,0-2.185-1.221-2.207-3.423,0-2.233.964-3.463,2.318-3.463C1317.577,1949.859,1318.378,1951.107,1318.378,1953.228Zm-3.62.1c0,1.731.535,2.715,1.354,2.715.924,0,1.365-1.075,1.365-2.777,0-1.642-.42-2.717-1.354-2.717-.791,0-1.366.966-1.366,2.782Z" transform="translate(-1059.083 -1572.069)"/><path class="j" d="M1328.658,1950.953h-.019l-1.157.625-.176-.686,1.456-.779h.768v6.661h-.872Z" transform="translate(-1067.631 -1572.212)"/><path class="j" d="M1338.289,1955.994a3.822,3.822,0,0,0,.727-.029,2.52,2.52,0,0,0,1.394-.646,2.927,2.927,0,0,0,.881-1.774h-.031a2,2,0,0,1-3.534-1.321,2.281,2.281,0,0,1,2.275-2.367c1.363,0,2.2,1.1,2.2,2.807a4.207,4.207,0,0,1-1.148,3.126,3.319,3.319,0,0,1-1.938.891,4.116,4.116,0,0,1-.829.05Zm.328-3.831a1.281,1.281,0,0,0,1.28,1.413,1.492,1.492,0,0,0,1.312-.7.6.6,0,0,0,.081-.326c0-1.138-.421-2.01-1.363-2.01-.767,0-1.307.68-1.307,1.623Z" transform="translate(-1074.496 -1572.069)"/><rect class="k" width="226.657" height="36.704" transform="translate(135.347 150.756)"/><rect class="k" width="226.657" height="36.707" transform="translate(135.347 224.172)"/><rect class="k" width="226.657" height="36.709" transform="translate(135.347 297.585)"/><rect class="i" width="101.852" height="5.859" transform="translate(135.347 150.756)"/><rect class="l" width="174.962" height="5.861" transform="translate(135.347 166.179)"/><rect class="f" width="62.356" height="5.857" transform="translate(135.347 181.603)"/><rect class="i" width="183.857" height="5.859" transform="translate(135.347 224.172)"/><rect class="l" width="75.549" height="5.865" transform="translate(135.347 239.593)"/><rect class="f" width="151.102" height="5.862" transform="translate(135.347 255.018)"/><rect class="i" width="75.549" height="5.862" transform="translate(135.347 298.061)"/><rect class="l" width="151.102" height="5.861" transform="translate(135.347 313.483)"/><rect class="f" width="124.718" height="5.862" transform="translate(135.347 328.905)"/><rect class="h" width="7.749" height="7.751" transform="translate(646.998 124.63)"/><rect class="h" width="7.751" height="7.751" transform="translate(664.552 124.63)"/><rect class="j" width="7.753" height="7.751" transform="translate(679.165 124.63)"/><rect class="i" width="7.752" height="7.751" transform="translate(697.127 124.63)"/><rect class="i" width="7.752" height="7.751" transform="translate(719.094 124.63)"/><rect class="j" width="7.749" height="7.752" transform="translate(646.998 144.012)"/><rect class="j" width="7.751" height="7.752" transform="translate(664.552 144.012)"/><rect class="j" width="7.753" height="7.752" transform="translate(679.165 144.012)"/><rect class="i" width="7.752" height="7.752" transform="translate(697.127 144.012)"/><rect class="i" width="7.752" height="7.752" transform="translate(719.094 144.012)"/><rect class="j" width="7.749" height="7.751" transform="translate(646.998 163.39)"/><rect class="j" width="7.751" height="7.751" transform="translate(664.552 163.39)"/><rect class="j" width="7.753" height="7.751" transform="translate(679.165 163.39)"/><rect class="i" width="7.752" height="7.751" transform="translate(697.127 163.39)"/><rect class="i" width="7.752" height="7.751" transform="translate(719.094 163.39)"/><rect class="l" width="7.749" height="7.749" transform="translate(646.998 182.772)"/><rect class="j" width="7.751" height="7.749" transform="translate(664.552 182.772)"/><rect class="j" width="7.753" height="7.749" transform="translate(679.165 182.772)"/><rect class="i" width="7.752" height="7.749" transform="translate(697.127 182.772)"/><rect class="i" width="7.752" height="7.749" transform="translate(719.094 182.772)"/><rect class="j" width="7.749" height="7.749" transform="translate(646.998 202.152)"/><rect class="j" width="7.751" height="7.749" transform="translate(664.552 202.152)"/><rect class="j" width="7.753" height="7.749" transform="translate(679.165 202.152)"/><rect class="i" width="7.752" height="7.749" transform="translate(697.127 202.152)"/><rect class="i" width="7.752" height="7.749" transform="translate(719.094 202.152)"/><rect class="j" width="7.749" height="7.748" transform="translate(646.998 221.534)"/><rect class="j" width="7.751" height="7.748" transform="translate(664.552 221.534)"/><rect class="j" width="7.753" height="7.748" transform="translate(679.165 221.534)"/><rect class="h" width="7.752" height="7.748" transform="translate(697.127 221.534)"/><rect class="h" width="7.752" height="7.748" transform="translate(719.094 221.534)"/><rect class="j" width="0.3" height="140.623" transform="translate(532.988 113.148)"/><rect class="j" width="0.3" height="140.623" transform="translate(487.107 113.148)"/><rect class="j" width="0.299" height="140.623" transform="translate(441.227 113.148)"/><rect class="j" width="0.299" height="140.623" transform="translate(395.35 113.148)"/><rect class="k" width="114.608" height="140.623" transform="translate(428.465 113.148)"/><path class="j" d="M1867.135,1492.661H1580.33V1351.74h286.807Zm-286.51-.3h286.211V1352.037h-286.21Z" transform="translate(-1261.907 -1238.74)"/><rect class="j" width="286.51" height="0.3" transform="translate(318.573 230.185)"/><rect class="j" width="286.51" height="0.302" transform="translate(318.573 206.747)"/><rect class="j" width="286.51" height="0.3" transform="translate(318.573 183.309)"/><rect class="j" width="286.51" height="0.3" transform="translate(318.573 159.871)"/><rect class="j" width="286.51" height="0.297" transform="translate(318.573 136.434)"/><path class="j" d="M1564.56,1662.929c0,2.071-.767,3.213-2.116,3.213-1.19,0-1.992-1.114-2.015-3.127,0-2.044.882-3.169,2.117-3.169C1563.829,1659.848,1564.56,1660.99,1564.56,1662.929Zm-3.306.095c0,1.581.489,2.483,1.237,2.483.841,0,1.243-.984,1.243-2.539,0-1.5-.381-2.483-1.233-2.483-.721,0-1.248.882-1.248,2.537Z" transform="translate(-1218.31 -1410.447)"/><path class="j" d="M1552.248,1607.745h-.018l-1.057.572-.158-.628,1.327-.711h.7v6.087h-.8Z" transform="translate(-1212.067 -1380.983)"/><path class="j" d="M1564.56,1609.828c0,2.068-.767,3.213-2.116,3.213-1.19,0-1.992-1.117-2.015-3.13,0-2.04.882-3.166,2.117-3.166C1563.829,1606.743,1564.56,1607.889,1564.56,1609.828Zm-3.306.093c0,1.583.489,2.483,1.237,2.483.841,0,1.243-.983,1.243-2.54,0-1.5-.381-2.482-1.233-2.482-.721,0-1.248.878-1.248,2.538Z" transform="translate(-1218.31 -1380.854)"/><path class="j" d="M1549.76,1559.824v-.507l.647-.628c1.553-1.479,2.257-2.266,2.266-3.185a1.087,1.087,0,0,0-1.209-1.188,2.072,2.072,0,0,0-1.292.514l-.262-.581a2.678,2.678,0,0,1,1.722-.62,1.711,1.711,0,0,1,1.864,1.771c0,1.125-.815,2.032-2.1,3.269l-.488.448v.021h2.734v.686Z" transform="translate(-1211.4 -1351.249)"/><path class="j" d="M1564.56,1556.719c0,2.071-.767,3.213-2.116,3.213-1.19,0-1.992-1.116-2.015-3.131,0-2.04.882-3.166,2.117-3.166C1563.829,1553.633,1564.56,1554.78,1564.56,1556.719Zm-3.306.095c0,1.581.489,2.48,1.237,2.48.841,0,1.243-.983,1.243-2.536,0-1.5-.381-2.482-1.233-2.482-.721,0-1.248.88-1.248,2.536Z" transform="translate(-1218.31 -1351.256)"/><path class="j" d="M1549.925,1505.779a2.775,2.775,0,0,0,1.348.383c1.058,0,1.385-.673,1.376-1.182-.009-.85-.776-1.214-1.571-1.214h-.461v-.619h.461c.6,0,1.357-.31,1.357-1.032,0-.486-.307-.916-1.067-.916a2.231,2.231,0,0,0-1.219.4l-.214-.6a2.9,2.9,0,0,1,1.59-.465c1.2,0,1.744.709,1.744,1.451a1.507,1.507,0,0,1-1.123,1.429v.021A1.585,1.585,0,0,1,1553.5,1505c0,.972-.76,1.822-2.22,1.822a3.1,3.1,0,0,1-1.583-.411Z" transform="translate(-1211.354 -1321.663)"/><path class="j" d="M1564.56,1503.613c0,2.07-.767,3.21-2.116,3.21-1.19,0-1.992-1.113-2.015-3.127,0-2.043.882-3.163,2.117-3.163C1563.829,1500.536,1564.56,1501.674,1564.56,1503.613Zm-3.306.092c0,1.584.489,2.483,1.237,2.483.841,0,1.243-.983,1.243-2.538,0-1.5-.381-2.483-1.233-2.483-.721,0-1.248.879-1.248,2.539Z" transform="translate(-1218.31 -1321.662)"/><path class="j" d="M1551.952,1453.748v-1.658h-2.826v-.546l2.715-3.883h.891v3.784h.854v.644h-.854v1.658Zm0-2.3v-2.034c0-.319.012-.639.031-.955h-.031c-.186.353-.334.615-.5.9l-1.487,2.069v.022Z" transform="translate(-1211.036 -1292.197)"/><path class="j" d="M1564.56,1450.509c0,2.069-.767,3.212-2.116,3.212-1.19,0-1.992-1.115-2.015-3.126,0-2.045.882-3.169,2.117-3.169C1563.829,1447.423,1564.56,1448.565,1564.56,1450.509Zm-3.306.093c0,1.581.489,2.481,1.237,2.481.841,0,1.243-.983,1.243-2.539,0-1.5-.381-2.482-1.233-2.482-.721,0-1.248.879-1.248,2.539Z" transform="translate(-1218.31 -1292.066)"/><path class="j" d="M1553.359,1395.237h-2.325l-.23,1.567a2.762,2.762,0,0,1,.493-.04,2.582,2.582,0,0,1,1.314.328,1.738,1.738,0,0,1,.868,1.567,2.11,2.11,0,0,1-2.264,2.077,2.989,2.989,0,0,1-1.518-.373l.206-.63a2.71,2.71,0,0,0,1.3.338,1.343,1.343,0,0,0,1.443-1.319c-.009-.79-.534-1.351-1.75-1.351a5.783,5.783,0,0,0-.844.068l.392-2.925h2.915Z" transform="translate(-1211.351 -1262.595)"/><path class="j" d="M1564.56,1397.4c0,2.07-.767,3.212-2.116,3.212-1.19,0-1.992-1.116-2.015-3.126,0-2.043.882-3.168,2.117-3.168C1563.829,1394.315,1564.56,1395.462,1564.56,1397.4Zm-3.306.095c0,1.582.489,2.48,1.237,2.48.841,0,1.243-.984,1.243-2.538,0-1.5-.381-2.482-1.233-2.482-.721,0-1.248.877-1.248,2.537Z" transform="translate(-1218.31 -1262.47)"/><path class="j" d="M1641.869,1686.31h-.018l-.99.531-.152-.587,1.248-.667h.659v5.708h-.746Z" transform="translate(-1269.97 -1424.792)"/><path class="j" d="M1769,1691.175v-.475l.606-.587c1.457-1.388,2.119-2.127,2.127-2.989a1.02,1.02,0,0,0-1.134-1.115,1.96,1.96,0,0,0-1.212.482l-.245-.541a2.5,2.5,0,0,1,1.617-.581,1.6,1.6,0,0,1,1.747,1.658c0,1.053-.764,1.905-1.967,3.068l-.457.418v.018h2.564v.642Z" transform="translate(-1352.971 -1424.668)"/><path class="j" d="M1898.614,1690.3a2.6,2.6,0,0,0,1.265.36c.992,0,1.3-.632,1.29-1.11-.009-.8-.727-1.138-1.475-1.138h-.432v-.581h.432c.562,0,1.272-.291,1.272-.968,0-.457-.291-.86-1-.86a2.112,2.112,0,0,0-1.142.377l-.2-.562a2.711,2.711,0,0,1,1.493-.438c1.126,0,1.636.667,1.636,1.363a1.414,1.414,0,0,1-1.055,1.341v.018a1.489,1.489,0,0,1,1.276,1.469c0,.914-.714,1.713-2.083,1.713a2.911,2.911,0,0,1-1.485-.386Z" transform="translate(-1436.533 -1424.676)"/><path class="j" d="M2029.98,1691.3v-1.554h-2.653v-.51l2.548-3.645h.834v3.547h.8v.607h-.8v1.554Zm0-2.161v-1.9c0-.3.009-.6.026-.9h-.026c-.174.335-.318.579-.474.842l-1.4,1.944v.015Z" transform="translate(-1519.866 -1424.797)"/><path class="j" d="M2160.754,1686.243h-2.179l-.22,1.468a3,3,0,0,1,.466-.035,2.415,2.415,0,0,1,1.229.307,1.628,1.628,0,0,1,.818,1.468,1.981,1.981,0,0,1-2.127,1.951,2.813,2.813,0,0,1-1.423-.352l.194-.587a2.579,2.579,0,0,0,1.221.315,1.26,1.26,0,0,0,1.354-1.24c-.009-.739-.5-1.263-1.645-1.263a5.47,5.47,0,0,0-.789.062l.371-2.742h2.731Z" transform="translate(-1603.742 -1424.796)"/><path class="i" d="M986.2,456.058l-.653-1.594,57.3-23.439,57.281-25.075,57.481-23.226h57.83l56.622-22.909.646,1.6-56.932,23.035h-57.83L1100.8,407.54l-57.277,25.071Z" transform="translate(-667.305 -200.524)"/><path class="f" d="M1100.46,372.7l-.314-.13-56.976-23.3-56.971,23.3-.653-1.6,57.624-23.569,57.313,23.442,56.772-21.56,57.29-70.517,57.494-24.973.686,1.581-57.109,24.8L1158.3,350.736l-.217.082Z" transform="translate(-667.308 -141.442)"/><path class="m" d="M2097.551,1404.163a3.28,3.28,0,1,1-3.279-3.278,3.28,3.28,0,0,1,3.279,3.278Z" transform="translate(-1561.275 -1266.129)"/><path class="f" d="M2093.195,1407.223a4.141,4.141,0,1,1,4.14-4.143A4.141,4.141,0,0,1,2093.195,1407.223Zm0-6.56a2.419,2.419,0,1,0,2.42,2.417,2.419,2.419,0,0,0-2.42-2.417Z" transform="translate(-1560.233 -1265.045)"/><path class="m" d="M1968.125,1563.488a3.279,3.279,0,1,1-.96-2.322,3.279,3.279,0,0,1,.96,2.322Z" transform="translate(-1477.659 -1354.917)"/><path class="f" d="M1963.757,1566.543a4.141,4.141,0,1,1,4.141-4.14,4.141,4.141,0,0,1-4.141,4.14Zm0-6.561a2.419,2.419,0,1,0,2.42,2.421,2.42,2.42,0,0,0-2.42-2.421Z" transform="translate(-1476.592 -1353.833)"/><path class="m" d="M1838.685,1612.651a3.279,3.279,0,1,1-3.281-3.28,3.279,3.279,0,0,1,3.281,3.28Z" transform="translate(-1394.034 -1382.317)"/><path class="f" d="M1834.319,1615.713a4.141,4.141,0,1,1,4.143-4.142,4.141,4.141,0,0,1-4.143,4.142Zm0-6.56a2.418,2.418,0,1,0,2.421,2.418,2.418,2.418,0,0,0-2.421-2.418Z" transform="translate(-1392.95 -1381.236)"/><path class="m" d="M1709.241,1559.713a3.281,3.281,0,1,1-3.283-3.278A3.281,3.281,0,0,1,1709.241,1559.713Z" transform="translate(-1310.404 -1352.816)"/><path class="f" d="M1704.878,1562.763a4.141,4.141,0,1,1,4.143-4.142A4.141,4.141,0,0,1,1704.878,1562.763Zm0-6.56a2.418,2.418,0,1,0,2.421,2.418,2.418,2.418,0,0,0-2.421-2.418Z" transform="translate(-1309.306 -1351.727)"/><path class="m" d="M1965.141,1506.519a3.28,3.28,0,1,1-3.283-3.281,3.28,3.28,0,0,1,3.283,3.281Z" transform="translate(-1475.73 -1323.17)"/><path class="i" d="M1960.773,1509.579a4.143,4.143,0,1,1,4.141-4.143A4.143,4.143,0,0,1,1960.773,1509.579Zm0-6.561a2.416,2.416,0,1,0,1.712.706A2.419,2.419,0,0,0,1960.773,1503.018Z" transform="translate(-1474.662 -1322.086)"/><path class="m" d="M2097.452,1506.519a3.28,3.28,0,1,1-3.28-3.281A3.28,3.28,0,0,1,2097.452,1506.519Z" transform="translate(-1561.211 -1323.17)"/><path class="i" d="M2093.083,1509.579a4.143,4.143,0,1,1,4.141-4.142A4.143,4.143,0,0,1,2093.083,1509.579Zm0-6.561a2.419,2.419,0,1,0,2.419,2.418A2.419,2.419,0,0,0,2093.083,1503.018Z" transform="translate(-1560.16 -1322.086)"/><rect class="n" width="10.334" height="5.166" transform="translate(22.806 66.253)"/><rect class="n" width="43.929" height="5.169" transform="translate(22.806 79.171)"/><rect class="n" width="10.334" height="5.167" transform="translate(22.806 112.761)"/><rect class="n" width="43.929" height="5.166" transform="translate(22.806 125.685)"/><rect class="n" width="10.334" height="5.169" transform="translate(22.806 159.275)"/><rect class="n" width="43.929" height="5.166" transform="translate(22.806 172.197)"/><rect class="n" width="10.334" height="5.169" transform="translate(22.806 205.787)"/><rect class="n" width="43.929" height="5.168" transform="translate(22.806 218.709)"/><rect class="n" width="10.334" height="5.169" transform="translate(22.806 252.299)"/><rect class="n" width="43.929" height="5.17" transform="translate(22.806 265.219)"/><rect class="n" width="10.334" height="5.163" transform="translate(22.806 298.815)"/><rect class="n" width="43.929" height="5.168" transform="translate(22.806 311.732)"/><g transform="translate(634.77 178.139)"><path class="o" d="M2206.93,162.411l9.761,25.392,3.152,12.142-9.757-25.391Z" transform="translate(-2077.842 -155.65)"/><path class="p" d="M1984.107,288.732l9.766,25.4-18.881-3.625-9.762-25.4Z" transform="translate(-1943.143 -224.027)"/><path class="q" d="M2355.88,153.086l9.766,25.4-18.354,16.066-9.761-25.394Z" transform="translate(-2150.625 -150.453)"/><g transform="translate(78.606 43.434)"><g class="r"><g transform="translate(-0.004 0.003)"><path class="s" d="M2836.945,1348.743l9.764,25.394c-.956-2.5-3.538-4.239-7.272-5.173l-9.757-25.406c3.733.943,6.307,2.684,7.265,5.185" transform="translate(-2766.634 -1342.757)"/><path class="t" d="M2824.971,1342.754l9.757,25.406a24.823,24.823,0,0,0-3.733-.637l-9.764-25.4a26.406,26.406,0,0,1,3.74.633" transform="translate(-2761.925 -1341.956)"/><path class="u" d="M2816.809,1341.92l9.764,25.4c-1.105-.109-2.287-.167-3.519-.175l-9.757-25.394c1.231,0,2.406.063,3.512.167" transform="translate(-2757.503 -1341.751)"/><path class="v" d="M2808.866,1341.749l9.757,25.394c-1.121-.01-2.288.037-3.508.121l-9.771-25.4c1.218-.081,2.4-.123,3.522-.115" transform="translate(-2753.072 -1341.748)"/><path class="w" d="M2800.741,1342.01l9.771,25.4c-1.181.083-2.4.2-3.653.373l-9.771-25.4c1.265-.161,2.475-.3,3.653-.374" transform="translate(-2748.47 -1341.894)"/><path class="x" d="M2792.109,1342.85l9.771,25.4c-1.288.164-2.61.383-3.973.644l-9.755-25.388q2.031-.4,3.957-.655" transform="translate(-2743.491 -1342.362)"/><path class="y" d="M2782.456,1344.33l9.755,25.389q-2.213.428-4.521,1.018l-9.757-25.4c1.525-.4,3.045-.73,4.523-1.01" transform="translate(-2737.796 -1343.187)"/><path class="z" d="M2770.377,1346.61l9.757,25.4c-1.834.471-3.713,1.009-5.622,1.635-.127.04-.247.078-.373.123l-9.77-25.4c.128-.044.248-.087.377-.129,1.907-.619,3.791-1.165,5.631-1.63" transform="translate(-2730.236 -1344.458)"/><path class="aa" d="M2740.008,1350.59l9.77,25.4a87.314,87.314,0,0,0-19.358,9.059l-9.756-25.391a87.5,87.5,0,0,1,19.344-9.063" transform="translate(-2705.88 -1346.676)"/><path class="z" d="M2714.963,1371.06l9.756,25.392q-2.424,1.549-4.529,3.172l-9.761-25.4c1.4-1.079,2.915-2.142,4.533-3.163" transform="translate(-2700.176 -1358.084)"/><path class="y" d="M2706.548,1378.2l9.761,25.4c-.173.125-.331.259-.5.386-.915.724-1.772,1.446-2.582,2.178l-9.763-25.4c.807-.734,1.658-1.465,2.584-2.182.158-.128.325-.254.5-.387" transform="translate(-2696.295 -1362.063)"/><path class="x" d="M2700.511,1384.01l9.763,25.4c-.843.775-1.632,1.54-2.342,2.312l-9.764-25.384c.708-.777,1.5-1.555,2.342-2.323" transform="translate(-2693.343 -1365.301)"/><path class="w" d="M2695.852,1389.25l9.764,25.384q-1.017,1.113-1.839,2.21l-9.767-25.4a27.651,27.651,0,0,1,1.842-2.2" transform="translate(-2691.025 -1368.221)"/><path class="v" d="M2692.2,1394.22l9.767,25.4a21.591,21.591,0,0,0-1.443,2.19l-9.765-25.394a19.9,19.9,0,0,1,1.441-2.193" transform="translate(-2689.211 -1370.991)"/><path class="u" d="M2689.461,1399.17l9.766,25.394a13.809,13.809,0,0,0-1.03,2.29l-9.767-25.4a13.4,13.4,0,0,1,1.031-2.285" transform="translate(-2687.916 -1373.749)"/><path class="t" d="M2687.794,1404.33l9.767,25.4a8.826,8.826,0,0,0-.509,2.6l-9.764-25.4a9.2,9.2,0,0,1,.505-2.6" transform="translate(-2687.28 -1376.625)"/><path class="s" d="M2687.274,1410.21l9.764,25.4a3.909,3.909,0,0,0,.007.65,6.331,6.331,0,0,0,.4,1.924l-9.758-25.39a6.226,6.226,0,0,1-.409-1.927c-.007-.219-.019-.439-.007-.658" transform="translate(-2687.269 -1379.902)"/></g></g></g><path class="ab" d="M1945.479,368.241l9.762,25.387-28.4,8.191-9.762-25.4Z" transform="translate(-1916.309 -270.359)"/><path class="ac" d="M2393.582,223.466l9.766,25.4-29.152,10.6-9.766-25.394Z" transform="translate(-2165.616 -189.676)"/><path class="ad" d="M2428.5,191.618l9.766,25.393.788,14.106-9.766-25.4Z" transform="translate(-2201.322 -171.927)"/><g transform="translate(29.167 97.885)"><g class="ae"><path class="s" d="M2587.5,1473.893l9.767,25.4c-5.582-2.13-9.655-5.2-11.9-9.168l-9.764-25.387c2.236,3.96,6.319,7.031,11.9,9.156" transform="translate(-2575.601 -1464.737)"/></g></g><g transform="translate(186.995 44.394)"><g class="af"><g transform="translate(0.001)"><path class="u" d="M2956.434,1343.91l9.764,25.394a35.978,35.978,0,0,1-1.888,3.895l-9.763-25.406a36.134,36.134,0,0,0,1.888-3.883" transform="translate(-2944.615 -1343.91)"/><path class="v" d="M2950.127,1352.68l9.763,25.406a50.626,50.626,0,0,1-3.507,5.346l-9.761-25.4a47.657,47.657,0,0,0,3.506-5.352" transform="translate(-2940.198 -1348.797)"/><path class="w" d="M2940.907,1364.77l9.761,25.4a70.873,70.873,0,0,1-4.548,5.441l-9.759-25.406a68.378,68.378,0,0,0,4.546-5.435" transform="translate(-2934.48 -1355.535)"/><path class="x" d="M2933.993,1377.04l9.76,25.406q-.911.991-1.882,1.969l-9.758-25.387c.642-.67,1.271-1.328,1.88-1.988" transform="translate(-2932.113 -1362.373)"/></g></g></g><path class="ag" d="M2040.029,396.847l9.762,25.391-21.219,15.2-9.762-25.4Z" transform="translate(-1973.003 -286.301)"/><path class="ah" d="M1989.691,427.878l9.762,25.4-23.127-2.623-9.766-25.393Z" transform="translate(-1943.884 -302.136)"/><g transform="translate(67.023 106.855)"><g class="ai"><g transform="translate(0.002)"><path class="y" d="M2720.186,1485l9.767,25.394c-1.53.334-3.048.642-4.542.931l-9.764-25.4c1.5-.282,3.01-.6,4.539-.928" transform="translate(-2691.506 -1485)"/><path class="x" d="M2703.387,1487.1l9.764,25.4c-3.329.646-6.589,1.168-9.743,1.6l-9.762-25.4q4.742-.623,9.742-1.595" transform="translate(-2679.245 -1486.17)"/><path class="w" d="M2682.407,1490.7l9.762,25.4c-3.066.414-6.043.707-8.926.9l-9.76-25.393c2.879-.2,5.862-.5,8.923-.911" transform="translate(-2668.009 -1488.177)"/><path class="v" d="M2666.595,1492.76l9.76,25.393c-1.873.132-3.691.219-5.475.254l-9.763-25.391c1.781-.038,3.605-.127,5.478-.256" transform="translate(-2661.117 -1489.325)"/></g></g></g><g transform="translate(132.403 80.904)"><g class="aj"><g transform="translate(0 0)"><path class="aa" d="M2837.463,1426.38l9.761,25.391a208.1,208.1,0,0,1-28.667,14.381l-9.761-25.394a209.171,209.171,0,0,0,28.667-14.378" transform="translate(-2808.796 -1426.38)"/></g></g></g><path class="ak" d="M2352.707,293.234l9.761,25.391L2340.5,335.954l-9.757-25.4Z" transform="translate(-2146.841 -228.557)"/><path class="al" d="M2302,330.981l9.757,25.4-22.826-1.1-9.762-25.391Z" transform="translate(-2118.101 -248.986)"/><path class="am" d="M2170.56,392.45l9.771,25.4-31.875,10.385-9.766-25.4Z" transform="translate(-2039.812 -283.85)"/><path class="an" d="M2212.336,362.368l9.762,25.394-1.647,13.321-9.771-25.4Z" transform="translate(-2079.931 -267.086)"/><path class="ao" d="M2714.974,1246.264l-18.35,16.068c5.572,2.121,9.637,5.213,11.873,9.173l28.4-8.182.788,14.1-29.152,10.6c-2.2,5.373-6.274,11.006-11.82,16.658l18.87,3.626-21.965,17.318-22.83-1.091a209.132,209.132,0,0,1-28.667,14.378l-1.653,13.317-31.873,10.38-3.171-12.123a154.088,154.088,0,0,1-28.681,3.689l-21.216,15.2-23.132-2.616,18.387-16.087c-5.576-2.125-9.659-5.2-11.9-9.156l-28.4,8.181-.775-14.119L2538.853,1325c2.207-5.374,6.3-11.019,11.832-16.659l-18.876-3.627,21.967-17.321,22.84,1.072a211.751,211.751,0,0,1,28.671-14.366l1.638-13.308,31.885-10.392,3.154,12.142a153.578,153.578,0,0,1,28.683-3.7l21.235-15.2Zm-55.941,48.715c-.484-8.642-16.687-10.485-36.2-4.127a82.226,82.226,0,0,0-24.754,12.742c-6.237,4.916-9.966,10.119-9.739,14.441.48,8.651,16.721,10.482,36.228,4.125a81.8,81.8,0,0,0,24.737-12.736c6.252-4.915,9.979-10.113,9.731-14.445" transform="translate(-2509.718 -1243.631)"/></g><g transform="translate(406.346 334.073)"><path class="ap" d="M1559.43,666.684l9.182,25.707,9.558,10.34-9.186-25.706Z" transform="translate(-1484.568 -598.614)"/><path class="aq" d="M2067.47,529.817l9.186,25.707,10.262-16.891-9.186-25.706Z" transform="translate(-1767.697 -512.925)"/><path class="ar" d="M1421.5,785.112l9.186,25.706,21.205,2.237-9.182-25.706Z" transform="translate(-1407.7 -664.613)"/><path class="as" d="M2172.23,569.1l9.186,25.707,23.007-15.875-9.186-25.709Z" transform="translate(-1826.079 -535.382)"/><path class="at" d="M1390.33,885.817l9.182,25.708,24.911-4.953-9.182-25.71Z" transform="translate(-1390.329 -717.974)"/><g transform="translate(125.215 70.167)"><g class="au"><g transform="translate(0 -0.001)"><path class="av" d="M2268.191,1876.834l9.186,25.706c-1.512-4.235-.383-9.436,3.664-15.234l-9.183-25.7c-4.048,5.8-5.179,11-3.667,15.233" transform="translate(-2267.548 -1820.123)"/><path class="aw" d="M2277.29,1855.049l9.183,25.7a46.756,46.756,0,0,1,4.288-5.2l-9.186-25.706a46.114,46.114,0,0,0-4.285,5.2" transform="translate(-2272.977 -1813.571)"/><path class="ax" d="M2286.97,1844.377l9.186,25.706c.037-.034.068-.072.1-.111q2.033-2.138,4.428-4.229l-9.185-25.706q-2.392,2.086-4.427,4.229c-.034.038-.074.071-.106.111" transform="translate(-2278.372 -1808.106)"/><path class="ay" d="M2297.21,1835.085l9.185,25.706c1.521-1.332,3.148-2.645,4.86-3.935l-9.183-25.708q-2.572,1.935-4.862,3.936" transform="translate(-2284.079 -1803.152)"/><path class="az" d="M2308.19,1826.424l9.183,25.708q2.547-1.915,5.344-3.756l-9.186-25.706q-2.786,1.842-5.341,3.754" transform="translate(-2290.198 -1798.427)"/><path class="ba" d="M2320.25,1817.965l9.186,25.706q2.914-1.916,6.069-3.738l-9.187-25.706q-3.146,1.816-6.068,3.738" transform="translate(-2296.919 -1793.721)"/><path class="bb" d="M2333.96,1809.234l9.188,25.706c2.365-1.37,4.826-2.693,7.353-3.965l-9.183-25.709q-3.8,1.911-7.358,3.969" transform="translate(-2304.559 -1788.727)"/><path class="ar" d="M2350.58,1799.531l9.183,25.709c3.2-1.607,6.519-3.132,9.909-4.556l-9.186-25.7c-3.393,1.425-6.706,2.947-9.906,4.551" transform="translate(-2313.822 -1782.996)"/><path class="bc" d="M2372.95,1781.351l9.186,25.7a160.168,160.168,0,0,1,38.162-10.824l-9.187-25.708a159.941,159.941,0,0,0-38.16,10.827" transform="translate(-2326.289 -1769.366)"/><path class="ar" d="M2459.15,1769.272l9.188,25.708c3.3-.48,6.552-.817,9.718-1l-9.185-25.706c-3.167.185-6.417.521-9.721,1" transform="translate(-2374.327 -1768.112)"/><path class="bb" d="M2481.11,1768.068l9.185,25.706q.96-.051,1.91-.093,2.776-.1,5.333-.046l-9.189-25.7c-1.7-.04-3.48-.028-5.331.046-.632.022-1.268.056-1.907.092" transform="translate(-2386.565 -1767.908)"/><path class="ba" d="M2497.46,1767.96l9.189,25.7c2.072.046,4.028.175,5.871.371l-9.186-25.7q-2.764-.3-5.874-.377" transform="translate(-2395.677 -1767.937)"/><path class="az" d="M2510.73,1768.81l9.186,25.7q2.705.3,5.083.808l-9.187-25.707a49.763,49.763,0,0,0-5.082-.8" transform="translate(-2403.073 -1768.411)"/><path class="ay" d="M2522.21,1770.62l9.188,25.707a37.56,37.56,0,0,1,4.549,1.266l-9.189-25.7a37.372,37.372,0,0,0-4.548-1.268" transform="translate(-2409.47 -1769.42)"/><path class="ax" d="M2532.48,1773.48l9.189,25.7a25.259,25.259,0,0,1,4.133,1.865l-9.186-25.7a24.858,24.858,0,0,0-4.136-1.867" transform="translate(-2415.194 -1771.013)"/><path class="aw" d="M2541.82,1777.7l9.186,25.7a16.522,16.522,0,0,1,3.8,2.91l-9.185-25.706a16.581,16.581,0,0,0-3.8-2.907" transform="translate(-2420.399 -1773.365)"/><path class="av" d="M2550.4,1784.26l9.185,25.706a11.581,11.581,0,0,1,2.565,4.089l-9.189-25.7a11.43,11.43,0,0,0-2.562-4.093" transform="translate(-2425.18 -1777.021)"/></g></g></g><g transform="translate(24.912 162.886)"><g class="bd"><g transform="translate(0 0)"><path class="av" d="M2040.98,1977.35l9.183,25.709a29.348,29.348,0,0,0,5.417,9.174l-9.186-25.7a29.339,29.339,0,0,1-5.414-9.179" transform="translate(-2040.98 -1977.35)"/></g></g></g><path class="be" d="M2249.45,615.316l9.186,25.709.146-22.933-9.186-25.708Z" transform="translate(-1869.114 -557.206)"/><path class="bf" d="M2187.71,654.777l9.186,25.709,27.333-10.593-9.186-25.709Z" transform="translate(-1834.706 -586.074)"/><g transform="translate(347.382 68.705)"><g class="bg"><path class="av" d="M2769.39,1776.394l9.187,25.706a62.6,62.6,0,0,0,5.618-11.783l-9.186-25.709a62.373,62.373,0,0,1-5.619,11.786" transform="translate(-2769.39 -1764.608)"/></g></g><path class="bh" d="M1415.86,931.233l9.186,25.706,25.894,12.223-9.191-25.707Z" transform="translate(-1404.557 -746.046)"/><path class="bi" d="M1474.34,946.933l9.191,25.707,21.706-9.458-9.186-25.709Z" transform="translate(-1437.148 -749.524)"/><g transform="translate(58.903 187.948)"><g class="bj"><path class="ay" d="M2117.76,2033.96l9.186,25.709q2.55.672,5.247,1.249l-9.186-25.709q-2.7-.573-5.247-1.249" transform="translate(-2117.76 -2033.96)"/><path class="az" d="M2129.61,2036.79l9.186,25.709a129.683,129.683,0,0,0,13,2.071l-9.189-25.708a129.6,129.6,0,0,1-13-2.072" transform="translate(-2124.364 -2035.537)"/><path class="ba" d="M2158.97,2041.47l9.189,25.708.395.043-9.183-25.709c-.136-.013-.264-.029-.4-.042" transform="translate(-2140.726 -2038.145)"/></g></g><path class="bk" d="M2159.63,726.806l9.186,25.706,26.089-27.474-9.186-25.709Z" transform="translate(-1819.057 -616.806)"/><path class="bf" d="M2106.06,764.976l9.186,25.71,23.716-3.585-9.186-25.706Z" transform="translate(-1789.203 -651.396)"/><g transform="translate(298.499 113.58)"><g class="bl"><g transform="translate(0 0.003)"><path class="az" d="M2658.97,1887.568l9.18,25.708q5.379-3.651,10.374-7.4l-9.189-25.708q-4.989,3.753-10.364,7.4" transform="translate(-2658.97 -1873.885)"/><path class="ay" d="M2682.39,1872.262l9.189,25.708q4.128-3.106,7.989-6.28l-9.186-25.709q-3.857,3.182-7.991,6.282" transform="translate(-2672.022 -1865.981)"/></g></g></g><g transform="translate(129.789 185.513)"><g class="bm"><g transform="translate(0 0.002)"><path class="ar" d="M2277.88,2037.64l9.184,25.7q3.086-.381,6.193-.831l-9.187-25.706q-3.1.443-6.19.834" transform="translate(-2277.88 -2033.113)"/><path class="bc" d="M2291.87,2032.159l9.188,25.706q10.455-1.5,21.114-3.7l-9.186-25.706q-10.668,2.2-21.115,3.695" transform="translate(-2285.677 -2028.464)"/></g></g></g><path class="bn" d="M1650.92,953.452l9.186,25.71,14.423-11.258-9.182-25.7Z" transform="translate(-1535.555 -752.158)"/><path class="bo" d="M1549.44,969.347l9.191,25.709,44.921-1.731-9.186-25.71Z" transform="translate(-1479.001 -766.321)"/><g transform="translate(218.183 156.647)"><g class="bp"><g transform="translate(0 0)"><path class="bc" d="M2477.55,1980.1l9.183,25.7q8.531-3.166,16.867-6.669l-9.189-25.711q-8.316,3.5-16.861,6.677" transform="translate(-2477.55 -1968.921)"/><path class="ar" d="M2515.63,1967.757l9.189,25.711q5.2-2.193,10.305-4.5l-9.186-25.708q-5.1,2.31-10.308,4.5" transform="translate(-2498.772 -1963.258)"/></g></g></g><path class="bq" d="M1745.19,931.972l9.186,25.706,4.56,8.151-9.186-25.706Z" transform="translate(-1588.092 -746.458)"/><path class="br" d="M1978.79,842.441l9.186,25.708,45.076-24.667-9.182-25.7Z" transform="translate(-1718.276 -682.818)"/><path class="bn" d="M1944.54,866.77l9.186,25.708,15.163,2.974-9.186-25.708Z" transform="translate(-1699.189 -710.121)"/><path class="bs" d="M1998.508,1729.912l21.207,2.238a81.67,81.67,0,0,0-6.9,11.332l-27.974,10.85-.139,22.923,24.911-4.954a29.344,29.344,0,0,0,5.414,9.179l-19.021,13.121,25.889,12.222,21.708-9.459a124.237,124.237,0,0,0,18.646,3.363l-7.107,11.714,44.922-1.732,14.427-11.251q13.479-1.685,27.305-4.529l4.563,8.151,51.953-15.234,4.57-10.607c9.242-3.439,18.335-7.17,27.169-11.175l15.16,2.974,45.081-24.663-7.092-7.693q9.817-6.671,18.356-13.687l23.715-3.581,26.089-27.477-19.278-2.034a62.359,62.359,0,0,0,5.62-11.786l27.335-10.593.147-22.932-28.759,5.719a30.914,30.914,0,0,0-5.573-7.179l23.007-15.877-25.852-12.235-30.325,13.2a133.425,133.425,0,0,0-13.209-1.913l10.261-16.89-44.943,1.734L2227.55,1628.5q-8.432,1.217-16.97,2.893l-7.062-12.636L2151.554,1634l-6.994,16.274c-5.86,2.191-11.651,4.524-17.38,6.947l-22.536-4.415-45.076,24.672,9.552,10.342q-7.531,4.917-14.383,10.059l-30.134,4.542Zm143.362,17.633c-30.641,1.181-41.062-13.051-23.245-31.8s57.1-34.911,87.749-36.094c30.678-1.182,41.086,13.06,23.273,31.81s-57.1,34.906-87.776,36.088" transform="translate(-1984.707 -1609.414)"/><path class="bt" d="M1872.85,902.621l9.186,25.707,4.564-10.611-9.182-25.7Z" transform="translate(-1659.236 -724.189)"/><path class="at" d="M1755.49,931.207l9.186,25.706,51.956-15.233-9.186-25.707Z" transform="translate(-1593.832 -737.541)"/></g></svg>