<svg id="Group_326" data-name="Group 326" xmlns="http://www.w3.org/2000/svg" width="64.932" height="38.237" viewBox="0 0 64.932 38.237">
  <g id="Group_184" data-name="Group 184">
    <g id="Group_8" data-name="Group 8">
      <g id="Group_7" data-name="Group 7">
        <path id="Path_3" data-name="Path 3" d="M540.952,34.912c0,.226,0,.454-.009.681l-.042.674-.021.337-.011.169-.02.166-.079.665c-.049.435-.131.906-.222,1.362a18.459,18.459,0,0,1-1.927,5.186,19.615,19.615,0,0,1-3.263,4.37,20.639,20.639,0,0,1-4.294,3.326,18.646,18.646,0,0,1-2.46,1.2,19.064,19.064,0,0,1-2.623.836,17.752,17.752,0,0,1-2.7.435l-.029,0h-.009a2.8,2.8,0,0,1-.5-5.577,13.147,13.147,0,0,0,1.87-.352,14.409,14.409,0,0,0,6.583-3.936,13.7,13.7,0,0,0,3.607-6.669c.059-.308.113-.6.149-.945l.063-.494.015-.124.008-.125.016-.246.034-.492c.01-.164,0-.326.008-.488s.005-.326,0-.488l-.026-.484a14.286,14.286,0,0,0-.239-1.894c-.032-.155-.073-.306-.108-.46s-.066-.309-.117-.456c-.1-.3-.174-.6-.295-.892a12.649,12.649,0,0,0-4.633-5.9,15.263,15.263,0,0,0-3.481-1.83c-.306-.125-.624-.216-.936-.323l-.478-.134c-.081-.02-.159-.045-.239-.066l-.241-.054a13.839,13.839,0,0,0-1.94-.323l-.485-.043-.484-.019c-.154-.01-.342,0-.517-.005s-.355,0-.531,0c-.7.019-1.4.058-2.072.137a17.57,17.57,0,0,0-1.969.345,12.951,12.951,0,0,0-1.841.6,11.86,11.86,0,0,0-1.725.884c-.279.175-.556.354-.828.553-.139.095-.27.2-.4.3s-.263.2-.392.309-.26.21-.386.326l-.379.342c-.247.239-.5.473-.737.73s-.476.512-.711.774c-.117.132-.228.271-.343.407s-.229.271-.339.413a32.918,32.918,0,0,0-2.455,3.595c-.749,1.27-1.427,2.588-2.061,3.956-.331.722-.691,1.471-1.074,2.2s-.794,1.448-1.225,2.15-.887,1.386-1.362,2.056c-.115.161-.247.348-.378.521s-.266.344-.4.512c-.272.334-.556.659-.847.974a16.817,16.817,0,0,1-4.068,3.258,13.063,13.063,0,0,1-1.207.592,12.631,12.631,0,0,1-1.283.465,10.434,10.434,0,0,1-2.722.432,11.243,11.243,0,0,1-2.683-.263,13.579,13.579,0,0,1-2.5-.8,14.059,14.059,0,0,1-4.3-2.888,12.2,12.2,0,0,1-2.854-4.352,12.065,12.065,0,0,1-.647-2.536,12.706,12.706,0,0,1-.1-2.6,12.313,12.313,0,0,1,1.413-4.977,12.806,12.806,0,0,1,3.282-3.984c.171-.131.34-.268.517-.4s.352-.252.536-.368a12.649,12.649,0,0,1,1.128-.65c.194-.1.387-.2.589-.281s.4-.178.6-.253l.307-.115.311-.1c.1-.033.207-.068.311-.1l.318-.086a11.514,11.514,0,0,1,2.6-.368,12.764,12.764,0,0,1,2.575.2,10.508,10.508,0,0,1,2.518.793,8.381,8.381,0,0,1,2.216,1.517,7.773,7.773,0,0,1,1.574,2.143,8.31,8.31,0,0,1,.514,1.27.233.233,0,0,1-.01.168l-.713,1.557a.232.232,0,0,1-.425-.006c-.183-.434-.4-.94-.5-1.137a8.315,8.315,0,0,0-.519-.9,7.474,7.474,0,0,0-.625-.8,6.065,6.065,0,0,0-.73-.676,6.418,6.418,0,0,0-1.72-.973,8.2,8.2,0,0,0-1.969-.483c-.342-.039-.687-.069-1.036-.078s-.7,0-1.05.015a9.67,9.67,0,0,0-2.009.343l-.247.068c-.082.025-.163.054-.243.081l-.245.082-.24.095c-.161.057-.319.127-.476.2s-.311.146-.466.222c-.307.154-.606.328-.9.512-.147.091-.287.192-.432.286s-.279.205-.42.306a10.478,10.478,0,0,0-2.716,3.111,9.1,9.1,0,0,0-1.182,3.93,8.915,8.915,0,0,0,.683,4.032A9.572,9.572,0,0,0,481.54,42.4a10.916,10.916,0,0,0,1.654,1.241,10.641,10.641,0,0,0,3.832,1.437c.165.034.333.047.5.069s.331.028.5.04a8.085,8.085,0,0,0,.974-.01,7.2,7.2,0,0,0,1.865-.393,8.961,8.961,0,0,0,1.759-.871,13.3,13.3,0,0,0,3.049-2.753c.224-.268.439-.546.643-.828.1-.14.2-.284.3-.426s.184-.28.285-.442q.592-.938,1.115-1.909t.983-1.971c.3-.671.585-1.345.865-2.058a40.441,40.441,0,0,1,4.617-8.723c.118-.173.248-.343.376-.512s.253-.34.387-.507c.27-.333.534-.668.822-.991s.581-.644.878-.96l.466-.465c.156-.156.325-.3.485-.454s.333-.3.505-.442.344-.287.521-.421c.348-.276.715-.537,1.085-.792a16.861,16.861,0,0,1,2.38-1.346,18.259,18.259,0,0,1,2.561-.96,22,22,0,0,1,2.615-.57c.87-.13,1.732-.208,2.585-.257.214-.013.426-.015.639-.024s.417-.019.652-.014l.686.005.681.038A20.751,20.751,0,0,1,532.9,19.629c.187.129.369.263.555.4l.277.2c.091.068.179.141.268.212l.533.43.514.456.255.229.246.243.488.488.465.514.229.258.218.27.434.543.4.567.2.286.187.295.368.594.335.615.165.308c.053.106.1.212.15.318l.294.635c.092.214.173.434.258.65.18.431.311.878.454,1.322.076.222.121.449.181.673s.116.451.165.677a19.351,19.351,0,0,1,.368,2.738l.038.686C540.954,34.458,540.95,34.685,540.952,34.912Z" transform="translate(-476.02 -16.091)" fill="#003a8e"/>
      </g>
    </g>
  </g>
  <g id="Group_185" data-name="Group 185" transform="translate(27.816 27.107)">
    <g id="Group_11" data-name="Group 11">
      <g id="Group_10" data-name="Group 10">
        <path id="Path_4" data-name="Path 4" d="M498.654,38.648h0a.525.525,0,1,0-.563-.483A.525.525,0,0,0,498.655,38.648Z" transform="translate(-498.09 -37.599)" fill="#6dcdf7"/>
      </g>
    </g>
  </g>
  <g id="Group_186" data-name="Group 186" transform="translate(29.529 29.296)">
    <g id="Group_14" data-name="Group 14">
      <g id="Group_13" data-name="Group 13">
        <path id="Path_5" data-name="Path 5" d="M500.577,41.433h0a1.051,1.051,0,1,0-1.129-.965A1.051,1.051,0,0,0,500.581,41.433Z" transform="translate(-499.448 -39.335)" fill="#6dcdf7"/>
      </g>
    </g>
  </g>
  <g id="Group_187" data-name="Group 187" transform="translate(32.626 31.751)">
    <g id="Group_17" data-name="Group 17">
      <g id="Group_16" data-name="Group 16">
        <path id="Path_6" data-name="Path 6" d="M503.6,44.429h.005a1.712,1.712,0,1,0-.005,0Z" transform="translate(-501.906 -41.283)" fill="#6dcdf7"/>
      </g>
    </g>
  </g>
  <g id="Group_188" data-name="Group 188" transform="translate(37.754 33.326)">
    <g id="Group_20" data-name="Group 20">
      <g id="Group_19" data-name="Group 19">
        <path id="Path_7" data-name="Path 7" d="M508.232,46.728h.006a2.281,2.281,0,1,0-.006,0Z" transform="translate(-505.975 -42.533)" fill="#6dcdf7"/>
      </g>
    </g>
  </g>
</svg>
