<svg xmlns="http://www.w3.org/2000/svg" width="557" height="250" viewBox="0 0 557 250">
  <g id="Group_182" data-name="Group 182" transform="translate(-812 -236.35)">
    <g id="Group_225" data-name="Group 225" transform="translate(812 236.35)">
      <g id="Group_182-2" data-name="Group 182" transform="translate(396.765 129.58)">
        <g id="Group_2" data-name="Group 2" transform="translate(0 0)">
          <g id="Group_1" data-name="Group 1">
            <path id="Path_1" data-name="Path 1" d="M517.936,33.664l-.007.022h0l-.111.17Z" transform="translate(-517.818 -33.664)" fill="#6dcdf7"/>
          </g>
        </g>
      </g>
      <g id="Group_183" data-name="Group 183" transform="translate(371.23 206.276)">
        <g id="Group_5" data-name="Group 5">
          <g id="Group_4" data-name="Group 4">
            <path id="Path_2" data-name="Path 2" d="M514.355,44.065" transform="translate(-514.355 -44.065)" fill="#6dcdf7"/>
          </g>
        </g>
      </g>
      <g id="Group_184" data-name="Group 184" transform="translate(88.552)">
        <g id="Group_8" data-name="Group 8">
          <g id="Group_7" data-name="Group 7">
            <path id="Path_3" data-name="Path 3" d="M855.908,126.2c-.022,1.32.007,2.655-.052,3.982l-.244,3.945-.125,1.969-.066.988-.118.973-.464,3.893c-.288,2.544-.767,5.3-1.3,7.971a108,108,0,0,1-11.275,30.343,114.753,114.753,0,0,1-19.091,25.565,120.746,120.746,0,0,1-25.122,19.46,109.068,109.068,0,0,1-14.394,7.013,111.534,111.534,0,0,1-15.345,4.889A103.871,103.871,0,0,1,752.5,239.74l-.17.015h-.052a16.383,16.383,0,0,1-2.942-32.629,76.9,76.9,0,0,0,10.943-2.057A84.3,84.3,0,0,0,798.8,182.039c10.537-10.987,18.235-24.658,21.1-39.015.347-1.8.664-3.532.87-5.53l.369-2.891.089-.723.044-.73.1-1.438.2-2.876c.059-.959.022-1.91.045-2.854,0-.959.029-1.91.022-2.854l-.155-2.832a83.588,83.588,0,0,0-1.4-11.083c-.185-.907-.428-1.792-.634-2.691-.229-.885-.383-1.807-.686-2.669-.56-1.748-1.017-3.532-1.726-5.221-4.992-13.76-14.7-25.668-27.106-34.51A89.3,89.3,0,0,0,769.56,53.417c-1.792-.73-3.65-1.261-5.479-1.888l-2.794-.782c-.472-.118-.929-.265-1.4-.383l-1.408-.317a80.967,80.967,0,0,0-11.348-1.888l-2.839-.251-2.831-.111c-.9-.059-2-.022-3.023-.029-1.04.007-2.08-.015-3.1.007-4.114.111-8.17.339-12.123.8A102.791,102.791,0,0,0,711.69,50.6a75.771,75.771,0,0,0-10.773,3.539,69.391,69.391,0,0,0-10.095,5.169c-1.63,1.025-3.252,2.072-4.844,3.237-.811.553-1.578,1.15-2.338,1.74s-1.541,1.165-2.293,1.807-1.519,1.231-2.256,1.91l-2.22,2c-1.445,1.4-2.92,2.765-4.314,4.269-1.43,1.445-2.787,2.994-4.159,4.528-.686.774-1.335,1.585-2.006,2.382s-1.342,1.585-1.984,2.419a192.631,192.631,0,0,0-14.364,21.03c-4.38,7.433-8.347,15.139-12.056,23.147-1.939,4.225-4.041,8.605-6.282,12.86-2.241,4.277-4.646,8.473-7.167,12.58s-5.191,8.111-7.971,12.027c-.671.944-1.445,2.035-2.212,3.045S612.8,170.3,612,171.281c-1.593,1.954-3.252,3.856-4.955,5.7a98.39,98.39,0,0,1-23.8,19.061,76.456,76.456,0,0,1-7.064,3.466,73.88,73.88,0,0,1-7.507,2.721,61.042,61.042,0,0,1-15.927,2.529,65.779,65.779,0,0,1-15.7-1.541,79.443,79.443,0,0,1-14.645-4.7,82.254,82.254,0,0,1-25.174-16.894,71.4,71.4,0,0,1-16.694-25.462,70.571,70.571,0,0,1-3.783-14.836,74.312,74.312,0,0,1-.575-15.2,72.035,72.035,0,0,1,8.266-29.119,74.915,74.915,0,0,1,19.2-23.309c1-.767,1.991-1.571,3.023-2.315,1.047-.715,2.057-1.475,3.134-2.153a73.967,73.967,0,0,1,6.6-3.8c1.136-.56,2.264-1.158,3.444-1.644,1.157-.524,2.323-1.04,3.525-1.482l1.8-.671,1.822-.59c.6-.192,1.209-.4,1.821-.583l1.858-.5A67.361,67.361,0,0,1,545.9,57.8a74.678,74.678,0,0,1,15.065,1.143,61.473,61.473,0,0,1,14.733,4.638,49.039,49.039,0,0,1,12.964,8.878A45.48,45.48,0,0,1,597.867,85a48.593,48.593,0,0,1,3.008,7.433,1.364,1.364,0,0,1-.059.981l-4.174,9.107a1.36,1.36,0,0,1-2.485-.037c-1.069-2.537-2.359-5.5-2.927-6.651a48.646,48.646,0,0,0-3.038-5.28,43.7,43.7,0,0,0-3.657-4.675,35.439,35.439,0,0,0-4.269-3.952A37.545,37.545,0,0,0,570.2,76.232a47.952,47.952,0,0,0-11.518-2.824c-2-.229-4.019-.406-6.062-.457s-4.114-.022-6.142.088a56.578,56.578,0,0,0-11.754,2.006l-1.445.4c-.479.147-.951.317-1.423.472l-1.43.479-1.4.553c-.944.332-1.866.745-2.787,1.15-.929.383-1.821.855-2.728,1.3-1.8.9-3.547,1.917-5.265,2.994-.862.531-1.681,1.121-2.529,1.674-.834.575-1.63,1.2-2.456,1.792a61.305,61.305,0,0,0-15.891,18.2,53.232,53.232,0,0,0-6.917,22.992,52.159,52.159,0,0,0,4,23.589,56.006,56.006,0,0,0,13.87,19.4,63.88,63.88,0,0,0,9.675,7.263A62.254,62.254,0,0,0,540.41,185.7c.966.2,1.947.273,2.913.406.973.111,1.939.162,2.9.236a47.3,47.3,0,0,0,5.7-.059,42.13,42.13,0,0,0,10.913-2.3,52.42,52.42,0,0,0,10.294-5.1,77.787,77.787,0,0,0,17.838-16.1c1.312-1.571,2.566-3.193,3.761-4.845.59-.819,1.18-1.659,1.733-2.492s1.076-1.637,1.666-2.588q3.462-5.486,6.526-11.171t5.752-11.533c1.785-3.923,3.422-7.868,5.058-12.041,6.976-17.557,15.485-34.959,27.011-51.034.693-1.01,1.452-2.006,2.2-2.994s1.482-1.991,2.264-2.964c1.578-1.947,3.126-3.908,4.808-5.8,1.622-1.925,3.4-3.768,5.14-5.619l2.728-2.721c.914-.914,1.9-1.77,2.839-2.655s1.946-1.74,2.957-2.588,2.013-1.681,3.046-2.463c2.035-1.615,4.181-3.141,6.349-4.631a98.665,98.665,0,0,1,13.922-7.875,106.837,106.837,0,0,1,14.984-5.619,128.719,128.719,0,0,1,15.3-3.333c5.088-.76,10.132-1.217,15.124-1.5,1.254-.074,2.493-.088,3.739-.14s2.441-.111,3.812-.081l4.012.03,3.982.221A121.406,121.406,0,0,1,808.8,36.789c1.091.752,2.16,1.541,3.245,2.315l1.622,1.165c.531.4,1.048.826,1.571,1.239l3.119,2.514,3.009,2.669,1.49,1.342,1.437,1.423,2.854,2.854,2.721,3.009,1.342,1.512,1.275,1.578,2.537,3.178,2.367,3.318,1.172,1.674,1.091,1.725,2.153,3.473,1.962,3.6.966,1.8c.31.619.582,1.239.878,1.858l1.718,3.716c.538,1.254,1.01,2.537,1.512,3.8,1.054,2.522,1.822,5.14,2.654,7.735.443,1.3.708,2.625,1.062,3.938.325,1.327.679,2.64.966,3.96a113.216,113.216,0,0,1,2.153,16.016l.221,4.011C855.922,123.55,855.9,124.877,855.908,126.2Z" transform="translate(-476.02 -16.091)" fill="#003a8e"/>
          </g>
        </g>
      </g>
      <g id="Group_185" data-name="Group 185" transform="translate(251.291 158.594)">
        <g id="Group_11" data-name="Group 11">
          <g id="Group_10" data-name="Group 10">
            <path id="Path_4" data-name="Path 4" d="M501.388,43.736h.008a3.331,3.331,0,1,0-.008,0Z" transform="translate(-498.09 -37.599)" fill="#6dcdf7"/>
          </g>
        </g>
      </g>
      <g id="Group_186" data-name="Group 186" transform="translate(261.31 171.4)">
        <g id="Group_14" data-name="Group 14">
          <g id="Group_13" data-name="Group 13">
            <path id="Path_5" data-name="Path 5" d="M506.052,51.61h.022a6.675,6.675,0,1,0-.022,0Z" transform="translate(-499.448 -39.335)" fill="#6dcdf7"/>
          </g>
        </g>
      </g>
      <g id="Group_187" data-name="Group 187" transform="translate(279.433 185.762)">
        <g id="Group_17" data-name="Group 17">
          <g id="Group_16" data-name="Group 16">
            <path id="Path_6" data-name="Path 6" d="M511.815,59.687h.03a10.016,10.016,0,1,0-.03,0Z" transform="translate(-501.906 -41.283)" fill="#6dcdf7"/>
          </g>
        </g>
      </g>
      <g id="Group_188" data-name="Group 188" transform="translate(309.433 194.978)">
        <g id="Group_20" data-name="Group 20">
          <g id="Group_19" data-name="Group 19">
            <path id="Path_7" data-name="Path 7" d="M519.183,67.074h.037a13.348,13.348,0,1,0-.037,0Z" transform="translate(-505.975 -42.533)" fill="#6dcdf7"/>
          </g>
        </g>
      </g>
    </g>
  </g>
</svg>
