<svg xmlns="http://www.w3.org/2000/svg" width="189.207" height="189.207" viewBox="0 0 189.207 189.207"><defs><style>.a{fill:#6dcdf7;}.b{fill:#194d99;}.c{fill:none;}</style></defs><path class="a" d="M191.99,96V230.022a15.768,15.768,0,0,1-15.767,15.767H26.433a15.768,15.768,0,0,1-15.767-15.767V96Z" transform="translate(-6.724 -60.524)"/><path class="b" d="M191.99,26.433V42.2H10.667V26.433A15.768,15.768,0,0,1,26.434,10.666H176.223A15.767,15.767,0,0,1,191.99,26.433Z" transform="translate(-6.725 -6.724)"/><path class="b" d="M42.667,309.333h47.3v7.884h-47.3v-7.884Z" transform="translate(-26.9 -195.021)"/><path class="b" d="M42.667,352h47.3v7.883h-47.3V352Z" transform="translate(-26.9 -221.92)"/><path class="b" d="M42.667,394.667h47.3v7.883h-47.3v-7.883Z" transform="translate(-26.9 -248.82)"/><path class="b" d="M192,309.333h47.3v7.884H192Z" transform="translate(-121.047 -195.021)"/><path class="b" d="M192,352h47.3v7.883H192Z" transform="translate(-121.047 -221.92)"/><path class="b" d="M192,394.667h47.3v7.883H192Z" transform="translate(-121.047 -248.82)"/><path class="b" d="M352,309.333h47.3v7.884H352Z" transform="translate(-221.92 -195.021)"/><path class="b" d="M352,352h47.3v7.883H352Z" transform="translate(-221.92 -221.92)"/><path class="b" d="M352,394.667h47.3v7.883H352Z" transform="translate(-221.92 -248.82)"/><path class="c" d="M169.5,189.207H19.709A19.733,19.733,0,0,1,0,169.5V19.709A19.733,19.733,0,0,1,19.709,0H169.5a19.733,19.733,0,0,1,19.709,19.709V169.5A19.733,19.733,0,0,1,169.5,189.207ZM19.709,7.884A11.825,11.825,0,0,0,7.884,19.709V169.5a11.825,11.825,0,0,0,11.825,11.825H169.5A11.825,11.825,0,0,0,181.323,169.5V19.709A11.825,11.825,0,0,0,169.5,7.884Z"/><path class="a" d="M53.333,42.667h7.884v7.884H53.333Z" transform="translate(-33.624 -26.9)"/><path class="a" d="M96,42.667h7.883v7.884H96Z" transform="translate(-60.524 -26.9)"/><path class="a" d="M437.333,42.667h7.883v7.884h-7.883Z" transform="translate(-388.719 -26.9)"/><g transform="translate(19.709 55.186)"><circle class="b" cx="19.709" cy="19.709" r="19.709" transform="translate(110.371)"/><circle class="b" cx="19.709" cy="19.709" r="19.709" transform="translate(55.185)"/><circle class="b" cx="19.709" cy="19.709" r="19.709"/></g></svg>