<svg xmlns="http://www.w3.org/2000/svg" xmlns:xlink="http://www.w3.org/1999/xlink" width="2210" height="1474" viewBox="0 0 2210 1474"><defs><style>.a,.d,.e,.f,.g,.h,.i,.j,.k,.l,.m,.n,.o,.p,.q,.r,.s,.t,.u,.v{fill:none;}.b{clip-path:url(#a);}.c{opacity:0.46;}.d{stroke:#3c3c3b;}.d,.e,.f,.g,.h,.i,.j,.k,.l,.m,.n,.o,.p,.q,.r,.s,.t,.u,.v{stroke-miterlimit:10;}.d,.e,.f,.g,.h,.i,.j,.k,.l,.m,.n,.o,.p,.q,.r,.s,.t{stroke-width:3px;}.e{stroke:#424241;}.f{stroke:#484847;}.g{stroke:#4e4e4d;}.h{stroke:#545453;}.i{stroke:#5a5a59;}.j{stroke:#60605f;}.k{stroke:#666665;}.l{stroke:#6c6c6b;}.m{stroke:#737372;}.n{stroke:#797978;}.o{stroke:#7f7f7e;}.p{stroke:#858584;}.q{stroke:#8b8b8a;}.r{stroke:#919190;}.s{stroke:#979796;}.t{stroke:#9d9d9c;}.u{stroke:#662483;}.v{stroke:#707070;}</style><clipPath id="a"><rect class="a" width="2210" height="1474" transform="translate(0.261 -0.16)"/></clipPath></defs><g transform="translate(-873.658 80.267)"><g class="b" transform="translate(873.398 -80.107)"><g class="c" transform="translate(-1608.175 285.301)"><path class="d" d="M-110.172,154.878S1441.469,1476.436,3374.919,742.329s549.922,1977.087,549.922,1977.087" transform="translate(1515.4 -154.878)"/><path class="e" d="M-157.849,187.915S1434.442,1463.492,3326.9,720.033C5199.252-9.518,3959.578,2660.906,3959.578,2660.906" transform="translate(1475.251 -127.058)"/><path class="f" d="M-205.527,220.951s1630.9,1224.554,3484.4,476.787C5088.146-32.185,3994.308,2602.4,3994.308,2602.4" transform="translate(1435.101 -99.238)"/><path class="g" d="M-253.2,253.987S1417.371,1430.4,3230.841,675.441c1747.268-727.392,798.2,1868.447,798.2,1868.447" transform="translate(1394.952 -71.418)"/><path class="h" d="M-300.882,287.024s1710.3,1128.533,3483.706,366.121c1685.343-724.551,880.944,1832.236,880.944,1832.236" transform="translate(1354.803 -43.598)"/><path class="i" d="M-348.559,320.06S1401.534,1401,3134.795,630.848C4758.3-90.539,4098.5,2426.873,4098.5,2426.873" transform="translate(1314.654 -15.778)"/><path class="j" d="M-396.237,353.1S1393.735,1386.766,3086.782,608.552C4648.56-109.327,4133.238,2368.365,4133.238,2368.365" transform="translate(1274.504 12.042)"/><path class="k" d="M-443.914,386.133S1386.048,1372.87,3038.749,586.257c1500.173-714.018,1129.213,1723.6,1129.213,1723.6" transform="translate(1234.355 39.862)"/><path class="l" d="M-491.592,419.17S1378.5,1359.346,2990.717,563.959C4429.429-145.828,4202.688,2251.35,4202.688,2251.35" transform="translate(1194.206 67.682)"/><path class="m" d="M-539.27,471.517s1910.4,894.025,3481.974,89.458C4320.12-144.2,4237.431,2212.156,4237.431,2212.156" transform="translate(1154.056 76.191)"/><path class="n" d="M-586.947,529.944s1950.913,848.313,3481.624,34.125C4210.992-136.088,4272.161,2179.038,4272.161,2179.038" transform="translate(1113.907 78.62)"/><path class="o" d="M-634.625,588.324s1991.7,803.086,3481.265-21.208C4102.077-127.615,4306.88,2145.875,4306.88,2145.875" transform="translate(1073.758 81.097)"/><path class="p" d="M-682.3,646.655S1350.5,1405.042,2798.626,570.115c1194.817-688.886,1543,1542.547,1543,1542.547" transform="translate(1033.609 83.622)"/><path class="q" d="M-729.98,704.937s2074.3,714.261,3480.574-131.874C3885.088-109.549,4376.339,2079.4,4376.339,2079.4" transform="translate(993.459 86.197)"/><path class="r" d="M-777.657,763.165S1338.615,1433.929,2702.562,575.96C3777.081-99.947,4411.072,2046.085,4411.072,2046.085" transform="translate(953.31 88.825)"/><path class="s" d="M-825.335,821.342S1333.479,1449.289,2654.548,578.8C3669.485-89.966,4445.815,2012.718,4445.815,2012.718" transform="translate(913.161 91.504)"/><path class="t" d="M-873.012,879.468S1329.034,1465.337,2606.512,581.6C3562.319-79.612,4480.536,1979.3,4480.536,1979.3" transform="translate(873.012 94.235)"/></g><path class="u" d="M-209.233,80.229s311.455,1231.205,1490.688,570.2S2920.239,460.364,2920.239,460.364" transform="translate(-176.195 67.561)"/><path class="u" d="M-247.971,84.145S205.823,1331.567,1282.238,651.552C2356.758-27.265,2953.683,487.084,2953.683,487.084" transform="translate(-208.816 70.858)"/><path class="u" d="M-286.709,88.06S308.263,1352.646,1283.022,652.676C2251.907-43.078,2987.13,513.805,2987.13,513.805" transform="translate(-241.438 74.156)"/><path class="u" d="M-325.447,91.976S409.511,1375.045,1283.8,653.8c862.374-711.413,1736.77-113.273,1736.77-113.273" transform="translate(-274.059 77.453)"/><path class="u" d="M-364.185,95.891S509.656,1399.224,1284.587,654.922c755.156-725.31,1769.434-87.675,1769.434-87.675" transform="translate(-306.68 80.75)"/><path class="u" d="M-402.924,99.807s1011.906,1325.9,1688.3,556.237c647.609-736.91,1802.1-62.077,1802.1-62.077" transform="translate(-339.302 84.047)"/><path class="u" d="M-441.662,103.722S708.057,1454.98,1286.154,657.168c540.354-745.726,1834.754-36.479,1834.754-36.479" transform="translate(-371.923 87.344)"/><path class="u" d="M-480.4,107.638S807.8,1487.387,1286.936,658.29c434.273-751.472,1867.429-10.881,1867.429-10.881" transform="translate(-404.545 90.642)"/><path class="u" d="M-519.138,111.553S909.468,1522.907,1287.719,659.414c330.4-754.261,1900.089,14.717,1900.089,14.717" transform="translate(-437.166 93.939)"/><path class="u" d="M-557.876,115.469S1014.456,1560.961,1288.5,660.535c229.708-754.743,1932.75,40.315,1932.75,40.315" transform="translate(-469.787 97.236)"/><path class="u" d="M-596.615,119.384s1720.589,1480.978,1885.9,542.276c132.8-754.091,1965.41,65.912,1965.41,65.912" transform="translate(-502.409 100.533)"/><path class="u" d="M-635.353,123.3S1238.625,1639.47,1290.069,662.781c39.7-753.763,1998.071,91.51,1998.071,91.51" transform="translate(-535.031 103.831)"/><path class="u" d="M-674.091,127.215s2032.238,1549.39,1964.944,536.69c-50.179-755.13,2030.738,117.108,2030.738,117.108" transform="translate(-567.652 107.128)"/><path class="u" d="M-712.829,131.13s2194.307,1579.376,2004.464,533.9C1153.786-94.115,3355.027,807.734,3355.027,807.734" transform="translate(-600.273 110.425)"/><path class="u" d="M-751.567,135.046S1607.131,1740.6,1292.427,666.151c-224.43-766.193,2096.046,168.3,2096.046,168.3" transform="translate(-632.894 113.722)"/><path class="u" d="M-790.306,138.961S1733.627,1766.989,1293.2,667.273c-310.854-776.184,2128.721,193.9,2128.721,193.9" transform="translate(-665.517 117.019)"/><path class="u" d="M-829.044,142.877S1859.814,1790.234,1293.976,668.4c-397.805-788.713,2161.4,219.5,2161.4,219.5" transform="translate(-698.138 120.317)"/><path class="v" d="M-798.993,140.449S1841.385,1789.554,1269.173,671.316c-398.638-780.352,2187.42,257.037,2187.42,257.037" transform="translate(-672.832 118.272)"/><path class="v" d="M-768.942,138.022s2591.892,1650.849,2013.3,536.213C844.9-97.754,3457.815,968.807,3457.815,968.807" transform="translate(-647.526 116.228)"/><path class="v" d="M-738.891,135.594s2543.4,1652.6,1958.441,541.561c-400.283-763.628,2239.485,332.11,2239.485,332.11" transform="translate(-622.22 114.184)"/><path class="v" d="M-708.84,133.167S1786.078,1787.526,1194.738,680.074C793.632-75.192,3460.256,1049.72,3460.256,1049.72" transform="translate(-596.914 112.14)"/><path class="v" d="M-678.789,130.739s2446.432,1656.1,1848.715,552.254C768-63.911,3461.495,1090.176,3461.495,1090.176" transform="translate(-571.608 110.095)"/><path class="v" d="M-648.738,128.311s2397.944,1657.851,1793.853,557.6c-402.751-738.542,2317.6,444.72,2317.6,444.72" transform="translate(-546.302 108.051)"/><path class="v" d="M-618.687,125.884S1730.771,1785.48,1120.3,688.832c-403.575-730.18,2343.632,482.256,2343.632,482.256" transform="translate(-520.996 106.007)"/><path class="v" d="M-588.636,123.456S1712.331,1784.8,1095.493,691.751c-404.4-721.818,2369.662,519.793,2369.662,519.793" transform="translate(-495.69 103.962)"/><path class="v" d="M-558.585,121.029S1693.9,1784.125,1070.68,694.672C665.459-18.786,3466.375,1252,3466.375,1252" transform="translate(-470.384 101.918)"/><path class="v" d="M-528.534,118.6s2204,1664.844,1574.4,578.989C639.825-7.5,3467.6,1292.455,3467.6,1292.455" transform="translate(-445.078 99.874)"/><path class="v" d="M-498.484,116.174S1657.031,1782.766,1021.057,700.51c-406.865-696.734,2447.76,632.4,2447.76,632.4" transform="translate(-419.773 97.83)"/><path class="v" d="M-468.433,113.746S1638.6,1782.088,996.245,703.43C588.557,15.058,3470.056,1373.366,3470.056,1373.366" transform="translate(-394.467 95.785)"/><path class="v" d="M-438.382,111.318S1620.157,1781.406,971.434,706.349c-408.511-680.01,2499.842,707.473,2499.842,707.473" transform="translate(-369.161 93.741)"/><path class="v" d="M-408.331,108.891S1601.713,1780.729,946.622,709.268C537.287,37.62,3472.5,1454.28,3472.5,1454.28" transform="translate(-343.855 91.697)"/><path class="v" d="M-378.28,106.463S1583.28,1780.051,921.81,712.188C511.653,48.9,3473.717,1494.736,3473.717,1494.736" transform="translate(-318.55 89.652)"/><path class="v" d="M-348.229,104.036S1564.851,1779.378,897,715.107c-410.98-654.925,2577.938,820.084,2577.938,820.084" transform="translate(-293.244 87.609)"/></g></g></svg>