<svg xmlns="http://www.w3.org/2000/svg" width="212.648" height="166.463" viewBox="0 0 212.648 166.463">
  <g id="Group_411" data-name="Group 411" transform="translate(-1351.482 -1063.781)">
    <rect id="Rectangle_816" data-name="Rectangle 816" width="21" height="57" transform="translate(1371.131 1173.244)" fill="#6dcdf7"/>
    <rect id="Rectangle_816-2" data-name="Rectangle 816" width="20" height="67" transform="translate(1400.131 1163.244)" fill="#6dcdf7"/>
    <rect id="Rectangle_816-3" data-name="Rectangle 816" width="20" height="81" transform="translate(1429.131 1149.244)" fill="#6dcdf7"/>
    <rect id="Rectangle_816-4" data-name="Rectangle 816" width="21" height="94" transform="translate(1457.131 1136.244)" fill="#6dcdf7"/>
    <rect id="Rectangle_816-5" data-name="Rectangle 816" width="20" height="110" transform="translate(1486.131 1120.244)" fill="#6dcdf7"/>
    <rect id="Rectangle_816-6" data-name="Rectangle 816" width="21" height="125" transform="translate(1514.131 1105.244)" fill="#6dcdf7"/>
    <rect id="Rectangle_816-7" data-name="Rectangle 816" width="22" height="140" transform="translate(1542.131 1090.244)" fill="#6dcdf7"/>
    <path id="Path_951" data-name="Path 951" d="M-18748.887,491.638c.953-.442,169.668-55.179,187.078-94.933" transform="translate(20101 675.993)" fill="none" stroke="#194d99" stroke-width="3"/>
    <path id="Path_556" data-name="Path 556" d="M12.188,9.838.827.139A.486.486,0,1,0,.146.834L9.3,10.258.2,19.6a.486.486,0,1,0,.681.695l11.306-9.758a.486.486,0,0,0,0-.695Z" transform="translate(1525.388 1072.503) rotate(-45)" fill="#194d99"/>
  </g>
</svg>
