<svg xmlns="http://www.w3.org/2000/svg" width="1374.249" height="1316.522" viewBox="0 0 1374.249 1316.522"><defs><style>.a{opacity:0.26;}.b{fill:#cecece;}.c{fill:#3f3f3f;}.d{fill:#7a7a7a;}.e{fill:#ededed;}</style></defs><g class="a" transform="matrix(0.921, -0.391, 0.391, 0.921, -611.556, 547.969)"><path class="b" d="M554.909,109l45.766,67.225-34.926,73.456-45.766-67.231Z" transform="translate(752.76 481.529)"/><path class="c" d="M588.969,120.264,634.735,187.5l-81.487,6.277-45.766-67.231Z" transform="translate(683.774 543.711)"/><path class="d" d="M623.9,109l-34.926,73.45-81.487,6.277,34.926-73.45Z" transform="translate(683.774 481.529)"/><path class="d" d="M535.824,116.77l-2.783,81.279-71.566,38.635,2.783-81.279Z" transform="translate(429.882 524.429)"/><path class="b" d="M523.062,159.157l-2.783,81.279-69.461-43.061L453.6,116.09Z" transform="translate(371.077 520.677)"/><path class="c" d="M592.272,153.23l-71.566,38.635L451.245,148.8l71.566-38.635Z" transform="translate(373.433 487.969)"/><path class="b" d="M559,93.016l-2.614,76.448-67.316,36.347,2.621-76.455Z" transform="translate(582.185 393.344)"/><path class="d" d="M547.005,132.877l-2.621,76.455L479.05,168.826l2.621-76.448Z" transform="translate(526.874 389.823)"/><path class="c" d="M612.1,127.308l-67.309,36.34-65.335-40.5L546.762,86.8Z" transform="translate(529.092 359.052)"/><path class="b" d="M481.108,43.289l48.308,74-39.5,79.062-48.3-74Z" transform="translate(320.313 118.928)"/><path class="c" d="M515.106,56.363l48.3,74-88.664,5.1-48.3-74Z" transform="translate(236.559 191.076)"/><path class="d" d="M554.286,42.029l-39.5,79.062-88.664,5.1,39.5-79.062Z" transform="translate(234.821 111.975)"/><path class="c" d="M665.985,56.317l-46.177,69.421-83.241-4.817,46.183-69.415Z" transform="translate(844.284 164.273)"/><path class="d" d="M608.172,117.514l-56.189,68.209-31.36-83.084L576.812,34.43Z" transform="translate(756.292 70.04)"/><path class="b" d="M645.056,92.978l-77.928-2.21L530.1,21.738l77.928,2.21Z" transform="translate(808.574 0)"/><path class="b" d="M454.717,119.963,499.173,190.5,460.74,264.484l-44.456-70.53Z" transform="translate(180.503 542.05)"/><path class="c" d="M483.458,142.844l39.26,79.173-88.651-5.365-39.26-79.173Z" transform="translate(61.983 638.711)"/><path class="d" d="M495.6,119.886l-33.883,70.2-78.143,5.56,33.889-70.2Z" transform="translate(0 541.625)"/><path class="c" d="M659.23,182.753l-77.928-2.21-37.031-69.037,77.921,2.216Z" transform="translate(886.793 495.38)"/><path class="d" d="M659.33,157.21l-35.551,75.418-83.046,7.392L576.285,164.6Z" transform="translate(867.268 747.595)"/><path class="b" d="M611.226,221.17,565.6,296.856l-43.159-77.622,45.629-75.679Z" transform="translate(766.308 672.241)"/><path class="c" d="M529.92,88.711l-2.62,76.448L459.99,201.5l2.614-76.448Z" transform="translate(421.692 369.587)"/><path class="b" d="M517.915,128.578,515.3,205.026,449.967,164.52l2.614-76.448Z" transform="translate(366.381 366.061)"/><path class="d" d="M583.018,123,515.7,159.343l-65.334-40.506L517.684,82.5Z" transform="translate(368.594 335.296)"/><path class="d" d="M421.386,89.622l76.488-.508,39.065,65.771-76.494.508Z" transform="translate(208.658 371.811)"/><path class="c" d="M459.379,99.712l76.494-.508-37.8,66.931-76.494.515Z" transform="translate(209.723 427.492)"/><path class="b" d="M453.387,89.192l39.058,65.771-37.8,66.938L415.587,156.13Z" transform="translate(176.657 372.242)"/><path class="b" d="M696.08,157.209,647.694,346.772,459.63,400.719l48.387-189.563Z" transform="translate(419.706 747.59)"/><path class="e" d="M627.43,281.439,579.044,471,437.991,334.042l48.38-189.569Z" transform="translate(300.292 677.307)"/><path class="d" d="M774.536,273.163,586.472,327.109,445.413,190.144,633.484,136.2Z" transform="translate(341.25 631.636)"/><path class="e" d="M697.285,79.152l57.232,164.122L641.748,375.546,584.516,211.431Z" transform="translate(1108.883 316.836)"/><path class="d" d="M729.861,126.679l57.232,164.115L615.41,258.632,558.178,94.51Z" transform="translate(963.538 401.589)"/><path class="b" d="M842.63,106.38,729.861,238.659,558.178,206.49,670.947,74.218Z" transform="translate(963.538 289.608)"/><path class="e" d="M688.673,54.775l-51.385,151.88L480.239,238.993l51.385-151.88Z" transform="translate(533.435 182.313)"/><path class="d" d="M621.961,161.949l-51.385,151.88L463.869,193.094l51.385-151.88Z" transform="translate(443.098 107.477)"/><path class="b" d="M735.508,156.982,578.459,189.32,471.752,68.586,628.8,36.254Z" transform="translate(486.6 80.106)"/></g></svg>