<svg xmlns="http://www.w3.org/2000/svg" width="105" height="104" viewBox="0 0 105 104">
  <g id="Group_551" data-name="Group 551" transform="translate(12651 5064)">
    <ellipse id="Ellipse_745" data-name="Ellipse 745" cx="52.5" cy="52" rx="52.5" ry="52" transform="translate(-12651 -5064)" fill="#fff" opacity="0.57"/>
    <g id="Group_540" data-name="Group 540" transform="translate(-12637.549 -5054.353)">
      <path id="Path_12685" data-name="Path 12685" d="M161.183,659.643v-3.41a2.75,2.75,0,0,0-2.41-2.729l-3.885-.483a2.747,2.747,0,0,1-2.233-1.764q-.227-.605-.493-1.19a2.749,2.749,0,0,1,.33-2.829l2.406-3.089a2.75,2.75,0,0,0-.225-3.634l-2.411-2.411a2.75,2.75,0,0,0-3.634-.225l-3.089,2.406a2.749,2.749,0,0,1-2.829.33q-.585-.266-1.19-.493a2.747,2.747,0,0,1-1.764-2.233L139.273,634a2.75,2.75,0,0,0-2.729-2.411h-3.41A2.75,2.75,0,0,0,130.405,634l-.483,3.885a2.747,2.747,0,0,1-1.764,2.233q-.605.227-1.19.493a2.749,2.749,0,0,1-2.829-.33l-3.089-2.406a2.75,2.75,0,0,0-3.634.225l-2.411,2.411a2.75,2.75,0,0,0-.225,3.634l2.406,3.089a2.749,2.749,0,0,1,.33,2.829q-.266.585-.493,1.19a2.747,2.747,0,0,1-2.233,1.764l-3.885.483a2.75,2.75,0,0,0-2.41,2.729v3.41a2.75,2.75,0,0,0,2.41,2.729l3.885.483a2.747,2.747,0,0,1,2.233,1.764q.227.6.493,1.19a2.749,2.749,0,0,1-.33,2.829l-2.406,3.089a2.75,2.75,0,0,0,.225,3.634l2.411,2.411a2.75,2.75,0,0,0,3.634.225l3.089-2.406a2.749,2.749,0,0,1,2.829-.33q.585.266,1.19.493a2.747,2.747,0,0,1,1.764,2.233l.483,3.885a2.75,2.75,0,0,0,2.729,2.41h3.41a2.75,2.75,0,0,0,2.729-2.41l.483-3.885a2.747,2.747,0,0,1,1.764-2.233q.605-.227,1.19-.493a2.749,2.749,0,0,1,2.829.33L148.627,678a2.75,2.75,0,0,0,3.634-.225l2.411-2.411a2.75,2.75,0,0,0,.225-3.634l-2.406-3.089a2.749,2.749,0,0,1-.33-2.829q.266-.585.493-1.19a2.747,2.747,0,0,1,2.233-1.764l3.885-.483a2.75,2.75,0,0,0,2.41-2.729Zm-26.344,9.687a11.392,11.392,0,1,1,11.392-11.392,11.392,11.392,0,0,1-11.392,11.392Z" transform="translate(-108.494 -602.746)" fill="#fff" stroke="#194d99" stroke-width="2"/>
      <path id="Path_12686" data-name="Path 12686" d="M188.691,603.366l-.519-1.868a1.563,1.563,0,0,0-1.736-1.128l-2.2.327a1.562,1.562,0,0,1-1.492-.627q-.216-.3-.451-.577a1.563,1.563,0,0,1-.25-1.6l.848-2.058a1.563,1.563,0,0,0-.676-1.956l-1.687-.954a1.563,1.563,0,0,0-2.025.43l-1.326,1.788a1.563,1.563,0,0,1-1.5.611q-.361-.057-.727-.089a1.562,1.562,0,0,1-1.306-.955l-.856-2.055a1.563,1.563,0,0,0-1.862-.905l-1.868.519a1.563,1.563,0,0,0-1.128,1.736l.327,2.2a1.562,1.562,0,0,1-.627,1.491q-.3.216-.577.451a1.563,1.563,0,0,1-1.6.25l-2.058-.848a1.563,1.563,0,0,0-1.956.676l-.954,1.688a1.563,1.563,0,0,0,.43,2.025l1.788,1.326a1.563,1.563,0,0,1,.611,1.5q-.057.361-.089.727a1.562,1.562,0,0,1-.955,1.306l-2.055.856a1.563,1.563,0,0,0-.905,1.862l.519,1.868a1.563,1.563,0,0,0,1.736,1.128l2.2-.327a1.562,1.562,0,0,1,1.491.627q.216.3.451.577a1.563,1.563,0,0,1,.25,1.6l-.848,2.058a1.563,1.563,0,0,0,.676,1.956l1.688.954a1.563,1.563,0,0,0,2.025-.43l1.326-1.788a1.563,1.563,0,0,1,1.5-.611q.361.057.727.089a1.562,1.562,0,0,1,1.306.955l.856,2.055a1.563,1.563,0,0,0,1.862.905l1.868-.519a1.563,1.563,0,0,0,1.128-1.736l-.327-2.2a1.562,1.562,0,0,1,.627-1.492q.3-.216.577-.451a1.563,1.563,0,0,1,1.6-.25l2.058.848a1.563,1.563,0,0,0,1.956-.676l.954-1.688a1.563,1.563,0,0,0-.43-2.025l-1.788-1.326a1.563,1.563,0,0,1-.611-1.5q.057-.361.089-.727a1.562,1.562,0,0,1,.955-1.306l2.055-.856A1.563,1.563,0,0,0,188.691,603.366Zm-12.957,9.315a6.477,6.477,0,1,1,4.507-7.974,6.477,6.477,0,0,1-4.507,7.974Z" transform="translate(-130.07 -591.693)" fill="#fff" stroke="#194d99" stroke-width="2"/>
      <path id="Path_12687" data-name="Path 12687" d="M221.256,649.442l.432-1.556a1.3,1.3,0,0,0-.754-1.551l-1.711-.713a1.3,1.3,0,0,1-.795-1.088q-.027-.3-.074-.605a1.3,1.3,0,0,1,.509-1.249l1.489-1.1a1.3,1.3,0,0,0,.358-1.687l-.794-1.406a1.3,1.3,0,0,0-1.629-.563l-1.714.706a1.3,1.3,0,0,1-1.333-.208q-.233-.2-.48-.376a1.3,1.3,0,0,1-.522-1.242l.272-1.834a1.3,1.3,0,0,0-.939-1.446l-1.556-.432a1.3,1.3,0,0,0-1.551.754l-.713,1.711a1.3,1.3,0,0,1-1.088.8q-.3.027-.605.074a1.3,1.3,0,0,1-1.249-.509l-1.1-1.489a1.3,1.3,0,0,0-1.687-.358l-1.406.794a1.3,1.3,0,0,0-.563,1.629l.706,1.714a1.3,1.3,0,0,1-.208,1.333q-.2.233-.376.48a1.3,1.3,0,0,1-1.242.522l-1.834-.272a1.3,1.3,0,0,0-1.446.939l-.432,1.556a1.3,1.3,0,0,0,.754,1.551l1.711.713a1.3,1.3,0,0,1,.795,1.088q.027.3.074.605a1.3,1.3,0,0,1-.509,1.249l-1.489,1.1a1.3,1.3,0,0,0-.358,1.687l.794,1.406a1.3,1.3,0,0,0,1.629.564l1.714-.706a1.3,1.3,0,0,1,1.333.208q.233.2.48.376a1.3,1.3,0,0,1,.522,1.242l-.272,1.834a1.3,1.3,0,0,0,.939,1.446l1.556.432a1.3,1.3,0,0,0,1.551-.754l.713-1.711a1.3,1.3,0,0,1,1.088-.795q.3-.027.605-.074a1.3,1.3,0,0,1,1.249.509l1.1,1.489a1.3,1.3,0,0,0,1.687.358l1.406-.794a1.3,1.3,0,0,0,.564-1.629l-.706-1.714a1.3,1.3,0,0,1,.208-1.333q.2-.233.376-.48a1.3,1.3,0,0,1,1.242-.522l1.834.272A1.3,1.3,0,0,0,221.256,649.442Zm-13.247,1.079a5.394,5.394,0,1,1,6.642-3.753A5.394,5.394,0,0,1,208.008,650.521Z" transform="translate(-146.187 -603.36)" fill="#fff" stroke="#194d99" stroke-width="2"/>
    </g>
  </g>
</svg>
